999
dxfrw 0.6.3
  0
SECTION
  2
HEADER
  9
$ACADVER
  1
AC1021
  9
$DWGCODEPAGE
  3
ANSI_1252
  9
$INSBASE
 10
0
 20
0
 30
0
  9
$EXTMIN
 10
-1000
 20
-1000
 30
0
  9
$EXTMAX
 10
1000
 20
1000
 30
0
  9
$LIMMIN
 10
0
 20
0
  9
$LIMMAX
 10
420
 20
297
  9
$ORTHOMODE
 70
    0
  9
$REGENMODE
 70
    1
  9
$FILLMODE
 70
    1
  9
$QTEXTMODE
 70
    0
  9
$MIRRTEXT
 70
    0
  9
$LTSCALE
 40
1
  9
$ATTMODE
 70
    0
  9
$TEXTSIZE
 40
2.5
  9
$TRACEWID
 40
15.68
  9
$TEXTSTYLE
  7
STANDARD
  9
$CLAYER
  8
background
  9
$CELTYPE
  6
BYLAYER
  9
$CECOLOR
 62
  256
  9
$CELTSCALE
 40
1
  9
$DISPSILH
 70
    0
  9
$DIMSCALE
 40
1
  9
$DIMASZ
 40
2.5
  9
$DIMEXO
 40
1
  9
$DIMDLI
 40
3.75
  9
$DIMRND
 40
0
  9
$DIMDLE
 40
0
  9
$DIMEXE
 40
1.25
  9
$DIMTP
 40
0
  9
$DIMTM
 40
0
  9
$DIMTXT
 40
2.5
  9
$DIMCEN
 40
2.5
  9
$DIMTSZ
 40
0
  9
$DIMTOL
 70
    0
  9
$DIMLIM
 70
    0
  9
$DIMTIH
 70
    0
  9
$DIMTOH
 70
    0
  9
$DIMSE1
 70
    0
  9
$DIMSE2
 70
    0
  9
$DIMTAD
 70
    1
  9
$DIMZIN
 70
    1
  9
$DIMBLK
  1

  9
$DIMASO
 70
    1
  9
$DIMSHO
 70
    1
  9
$DIMPOST
  1

  9
$DIMAPOST
  1

  9
$DIMALT
 70
    0
  9
$DIMALTD
 70
    3
  9
$DIMALTF
 40
0.03937
  9
$DIMLFAC
 40
1
  9
$DIMTOFL
 70
    1
  9
$DIMTVP
 40
0
  9
$DIMTIX
 70
    0
  9
$DIMSOXD
 70
    0
  9
$DIMSAH
 70
    0
  9
$DIMBLK1
  1

  9
$DIMBLK2
  1

  9
$DIMSTYLE
  2
STANDARD
  9
$DIMCLRD
 70
    0
  9
$DIMCLRE
 70
    0
  9
$DIMCLRT
 70
    0
  9
$DIMTFAC
 40
1
  9
$DIMGAP
 40
0.625
  9
$DIMJUST
 70
    0
  9
$DIMSD1
 70
    0
  9
$DIMSD2
 70
    0
  9
$DIMTOLJ
 70
    0
  9
$DIMTZIN
 70
    8
  9
$DIMALTZ
 70
    0
  9
$DIMALTTZ
 70
    0
  9
$DIMUPT
 70
    0
  9
$DIMDEC
 70
    4
  9
$DIMTDEC
 70
    2
  9
$DIMALTU
 70
    2
  9
$DIMALTTD
 70
    3
  9
$DIMTXSTY
  7
standard
  9
$DIMAUNIT
 70
    0
  9
$DIMADEC
 70
    2
  9
$DIMALTRND
 40
0
  9
$DIMAZIN
 70
    0
  9
$DIMDSEP
 70
    0
  9
$DIMATFIT
 70
    3
  9
$DIMFRAC
 70
    0
  9
$DIMLDRBLK
  1
STANDARD
  9
$DIMLUNIT
 70
    2
  9
$DIMLWD
 70
   -2
  9
$DIMLWE
 70
   -2
  9
$DIMTMOVE
 70
    0
  9
$DIMFXL
 40
1
  9
$DIMFXLON
 70
    0
  9
$DIMJOGANG
 40
0.7854
  9
$DIMTFILL
 70
    0
  9
$DIMTFILLCLR
 70
    0
  9
$DIMARCSYM
 70
    0
  9
$DIMLTYPE
  6

  9
$DIMLTEX1
  6

  9
$DIMLTEX2
  6

  9
$LUNITS
 70
    2
  9
$LUPREC
 70
    4
  9
$SKETCHINC
 40
1
  9
$FILLETRAD
 40
0
  9
$AUNITS
 70
    0
  9
$AUPREC
 70
    2
  9
$MENU
  1
.
  9
$ELEVATION
 40
0
  9
$PELEVATION
 40
0
  9
$THICKNESS
 40
0
  9
$LIMCHECK
 70
    0
  9
$CHAMFERA
 40
0
  9
$CHAMFERB
 40
0
  9
$CHAMFERC
 40
0
  9
$CHAMFERD
 40
0
  9
$SKPOLY
 70
    0
  9
$USRTIMER
 70
    1
  9
$ANGBASE
 50
0
  9
$ANGDIR
 70
    0
  9
$PDMODE
 70
   34
  9
$PDSIZE
 40
0
  9
$PLINEWID
 40
0
  9
$SPLFRAME
 70
    0
  9
$SPLINETYPE
 70
    2
  9
$SPLINESEGS
 70
    8
  9
$HANDSEED
  5
20000
  9
$SURFTAB1
 70
    6
  9
$SURFTAB2
 70
    6
  9
$SURFTYPE
 70
    6
  9
$SURFU
 70
    6
  9
$SURFV
 70
    6
  9
$UCSBASE
  2

  9
$UCSNAME
  2

  9
$UCSORG
 10
0
 20
0
 30
0
  9
$UCSXDIR
 10
1
 20
0
 30
0
  9
$UCSYDIR
 10
0
 20
1
 30
0
  9
$UCSORTHOREF
  2

  9
$UCSORTHOVIEW
 70
    0
  9
$UCSORGTOP
 10
0
 20
0
 30
0
  9
$UCSORGBOTTOM
 10
0
 20
0
 30
0
  9
$UCSORGLEFT
 10
0
 20
0
 30
0
  9
$UCSORGRIGHT
 10
0
 20
0
 30
0
  9
$UCSORGFRONT
 10
0
 20
0
 30
0
  9
$UCSORGBACK
 10
0
 20
0
 30
0
  9
$PUCSBASE
  2

  9
$PUCSNAME
  2

  9
$PUCSORG
 10
0
 20
0
 30
0
  9
$PUCSXDIR
 10
1
 20
0
 30
0
  9
$PUCSYDIR
 10
0
 20
1
 30
0
  9
$PUCSORTHOREF
  2

  9
$PUCSORTHOVIEW
 70
    0
  9
$PUCSORGTOP
 10
0
 20
0
 30
0
  9
$PUCSORGBOTTOM
 10
0
 20
0
 30
0
  9
$PUCSORGLEFT
 10
0
 20
0
 30
0
  9
$PUCSORGRIGHT
 10
0
 20
0
 30
0
  9
$PUCSORGFRONT
 10
0
 20
0
 30
0
  9
$PUCSORGBACK
 10
0
 20
0
 30
0
  9
$USERI1
 70
    0
  9
$USERI2
 70
    0
  9
$USERI3
 70
    0
  9
$USERI4
 70
    0
  9
$USERI5
 70
    0
  9
$USERR1
 40
0
  9
$USERR2
 40
0
  9
$USERR3
 40
0
  9
$USERR4
 40
0
  9
$USERR5
 40
0
  9
$WORLDVIEW
 70
    1
  9
$SHADEDGE
 70
    3
  9
$SHADEDIF
 70
   70
  9
$TILEMODE
 70
    1
  9
$MAXACTVP
 70
   64
  9
$PINSBASE
 10
603.5361445783133
 20
634.3554216867474
 30
0
  9
$PLIMCHECK
 70
    0
  9
$PEXTMIN
 10
0
 20
0
 30
0
  9
$PEXTMAX
 10
0
 20
0
 30
0
  9
$GRIDMODE
 70
    1
  9
$SNAPSTYLE
 70
    0
  9
$GRIDUNIT
 10
0
 20
0
  9
$PLIMMIN
 10
0
 20
0
  9
$PLIMMAX
 10
1189
 20
841
  9
$UNITMODE
 70
    0
  9
$VISRETAIN
 70
    1
  9
$PLINEGEN
 70
    0
  9
$PSLTSCALE
 70
    1
  9
$TREEDEPTH
 70
 3020
  9
$CMLSTYLE
  2
Standard
  9
$CMLJUST
 70
    0
  9
$CMLSCALE
 40
20
  9
$PROXYGRAPHICS
 70
    1
  9
$MEASUREMENT
 70
    1
  9
$CELWEIGHT
370
   -1
  9
$ENDCAPS
280
    0
  9
$JOINSTYLE
280
    0
  9
$LWDISPLAY
290
    0
  9
$INSUNITS
 70
    4
  9
$HYPERLINKBASE
  1

  9
$STYLESHEET
  1

  9
$XEDIT
290
    1
  9
$CEPSNTYPE
380
    0
  9
$PSTYLEMODE
290
    1
  9
$EXTNAMES
290
    1
  9
$PSVPSCALE
 40
1
  9
$OLESTARTUP
290
    0
  9
$SORTENTS
280
  127
  9
$INDEXCTL
280
    0
  9
$HIDETEXT
280
    1
  9
$XCLIPFRAME
290
    0
  9
$HALOGAP
280
    0
  9
$OBSCOLOR
 70
  257
  9
$OBSLTYPE
280
    0
  9
$INTERSECTIONDISPLAY
280
    0
  9
$INTERSECTIONCOLOR
 70
  257
  9
$DIMASSOC
280
    1
  9
$PROJECTNAME
  1

  9
$CAMERADISPLAY
290
    0
  9
$LENSLENGTH
 40
50
  9
$CAMERAHEIGHT
 40
0
  9
$STEPSPERSEC
 40
2
  9
$STEPSIZE
 40
50
  9
$3DDWFPREC
 40
2
  9
$PSOLWIDTH
 40
5
  9
$PSOLHEIGHT
 40
80
  9
$LOFTANG1
 40
1.570796326794897
  9
$LOFTANG2
 40
1.570796326794897
  9
$LOFTMAG1
 40
0
  9
$LOFTMAG2
 40
0
  9
$LOFTPARAM
 70
    7
  9
$LOFTNORMALS
280
    1
  9
$LATITUDE
 40
1
  9
$LONGITUDE
 40
1
  9
$NORTHDIRECTION
 40
0
  9
$TIMEZONE
 70
-8000
  9
$LIGHTGLYPHDISPLAY
280
    1
  9
$TILEMODELIGHTSYNCH
280
    1
  9
$SOLIDHIST
280
    1
  9
$SHOWHIST
280
    1
  9
$DWFFRAME
280
    2
  9
$DGNFRAME
280
    0
  9
$REALWORLDSCALE
290
    1
  9
$INTERFERECOLOR
 62
    1
  9
$CSHADOW
280
    0
  9
$SHADOWPLANELOCATION
 40
0
  0
ENDSEC
  0
SECTION
  2
CLASSES
  0
ENDSEC
  0
SECTION
  2
TABLES
  0
TABLE
  2
VPORT
  5
8
330
0
100
AcDbSymbolTable
 70
    1
  0
VPORT
  5
31
330
2
100
AcDbSymbolTableRecord
100
AcDbViewportTableRecord
  2
*ACTIVE
 70
    0
 10
0
 20
0
 11
1
 21
1
 12
396.0567868668677
 22
67.95091931539397
 13
0
 23
0
 14
10
 24
10
 15
10
 25
10
 16
0
 26
0
 36
1
 17
0
 27
0
 37
0
 40
663.9775544532782
 41
2.182748538011696
 42
50
 43
0
 44
0
 50
0
 51
0
 71
    0
 72
  100
 73
    1
 74
    3
 75
    0
 76
    1
 77
    0
 78
    0
281
    0
 65
    1
110
0
120
0
130
0
111
1
121
0
131
0
112
0
122
1
132
0
 79
    0
146
0
348
10020
 60
    7
 61
    5
292
1
282
    1
141
0
142
0
 63
  250
421
3358443
  0
ENDTAB
  0
TABLE
  2
LTYPE
  5
5
330
0
100
AcDbSymbolTable
 70
    4
  0
LTYPE
  5
14
330
5
100
AcDbSymbolTableRecord
100
AcDbLinetypeTableRecord
  2
ByBlock
 70
    0
  3

 72
   65
 73
    0
 40
0
  0
LTYPE
  5
15
330
5
100
AcDbSymbolTableRecord
100
AcDbLinetypeTableRecord
  2
ByLayer
 70
    0
  3

 72
   65
 73
    0
 40
0
  0
LTYPE
  5
16
330
5
100
AcDbSymbolTableRecord
100
AcDbLinetypeTableRecord
  2
Continuous
 70
    0
  3
Solid line
 72
   65
 73
    0
 40
0
  0
LTYPE
  5
32
330
5
100
AcDbSymbolTableRecord
100
AcDbLinetypeTableRecord
  2
DOT
 70
    0
  3
Dot . . . . . . . . . . . . . . . . . . . . . .
 72
   65
 73
    2
 40
6.35
 49
0
 74
    0
 49
-6.35
 74
    0
  0
LTYPE
  5
33
330
5
100
AcDbSymbolTableRecord
100
AcDbLinetypeTableRecord
  2
DOTTINY
 70
    0
  3
Dot (.15x) .....................................
 72
   65
 73
    2
 40
0.9525
 49
0
 74
    0
 49
-0.9525
 74
    0
  0
LTYPE
  5
34
330
5
100
AcDbSymbolTableRecord
100
AcDbLinetypeTableRecord
  2
DOT2
 70
    0
  3
Dot (.5x) .....................................
 72
   65
 73
    2
 40
3.175
 49
0
 74
    0
 49
-3.175
 74
    0
  0
LTYPE
  5
35
330
5
100
AcDbSymbolTableRecord
100
AcDbLinetypeTableRecord
  2
DOTX2
 70
    0
  3
Dot (2x) .  .  .  .  .  .  .  .  .  .  .  .  .
 72
   65
 73
    2
 40
12.7
 49
0
 74
    0
 49
-12.7
 74
    0
  0
LTYPE
  5
36
330
5
100
AcDbSymbolTableRecord
100
AcDbLinetypeTableRecord
  2
DASHED
 70
    0
  3
Dashed _ _ _ _ _ _ _ _ _ _ _ _ _ _ _ _ _
 72
   65
 73
    2
 40
19.05
 49
12.7
 74
    0
 49
-6.35
 74
    0
  0
LTYPE
  5
37
330
5
100
AcDbSymbolTableRecord
100
AcDbLinetypeTableRecord
  2
DASHEDTINY
 70
    0
  3
Dashed (.15x) _ _ _ _ _ _ _ _ _ _ _ _ _ _ _ _ _
 72
   65
 73
    2
 40
2.8575
 49
1.905
 74
    0
 49
-0.9525
 74
    0
  0
LTYPE
  5
38
330
5
100
AcDbSymbolTableRecord
100
AcDbLinetypeTableRecord
  2
DASHED2
 70
    0
  3
Dashed (.5x) _ _ _ _ _ _ _ _ _ _ _ _ _ _ _ _ _
 72
   65
 73
    2
 40
9.524999999999999
 49
6.35
 74
    0
 49
-3.175
 74
    0
  0
LTYPE
  5
39
330
5
100
AcDbSymbolTableRecord
100
AcDbLinetypeTableRecord
  2
DASHEDX2
 70
    0
  3
Dashed (2x) ____  ____  ____  ____  ____  ___
 72
   65
 73
    2
 40
38.09999999999999
 49
25.4
 74
    0
 49
-12.7
 74
    0
  0
LTYPE
  5
3A
330
5
100
AcDbSymbolTableRecord
100
AcDbLinetypeTableRecord
  2
DASHDOT
 70
    0
  3
Dash dot __ . __ . __ . __ . __ . __ . __ . __
 72
   65
 73
    4
 40
25.4
 49
12.7
 74
    0
 49
-6.35
 74
    0
 49
0
 74
    0
 49
-6.35
 74
    0
  0
LTYPE
  5
3B
330
5
100
AcDbSymbolTableRecord
100
AcDbLinetypeTableRecord
  2
DASHDOTTINY
 70
    0
  3
Dash dot (.15x) _._._._._._._._._._._._._._._.
 72
   65
 73
    4
 40
3.81
 49
1.905
 74
    0
 49
-0.9525
 74
    0
 49
0
 74
    0
 49
-0.9525
 74
    0
  0
LTYPE
  5
3C
330
5
100
AcDbSymbolTableRecord
100
AcDbLinetypeTableRecord
  2
DASHDOT2
 70
    0
  3
Dash dot (.5x) _._._._._._._._._._._._._._._.
 72
   65
 73
    4
 40
12.7
 49
6.35
 74
    0
 49
-3.175
 74
    0
 49
0
 74
    0
 49
-3.175
 74
    0
  0
LTYPE
  5
3D
330
5
100
AcDbSymbolTableRecord
100
AcDbLinetypeTableRecord
  2
DASHDOTX2
 70
    0
  3
Dash dot (2x) ____  .  ____  .  ____  .  ___
 72
   65
 73
    4
 40
50.8
 49
25.4
 74
    0
 49
-12.7
 74
    0
 49
0
 74
    0
 49
-12.7
 74
    0
  0
LTYPE
  5
3E
330
5
100
AcDbSymbolTableRecord
100
AcDbLinetypeTableRecord
  2
DIVIDE
 70
    0
  3
Divide ____ . . ____ . . ____ . . ____ . . ____
 72
   65
 73
    6
 40
31.75
 49
12.7
 74
    0
 49
-6.35
 74
    0
 49
0
 74
    0
 49
-6.35
 74
    0
 49
0
 74
    0
 49
-6.35
 74
    0
  0
LTYPE
  5
3F
330
5
100
AcDbSymbolTableRecord
100
AcDbLinetypeTableRecord
  2
DIVIDETINY
 70
    0
  3
Divide (.15x) __..__..__..__..__..__..__..__.._
 72
   65
 73
    6
 40
4.7625
 49
1.905
 74
    0
 49
-0.9525
 74
    0
 49
0
 74
    0
 49
-0.9525
 74
    0
 49
0
 74
    0
 49
-0.9525
 74
    0
  0
LTYPE
  5
40
330
5
100
AcDbSymbolTableRecord
100
AcDbLinetypeTableRecord
  2
DIVIDE2
 70
    0
  3
Divide (.5x) __..__..__..__..__..__..__..__.._
 72
   65
 73
    6
 40
15.875
 49
6.35
 74
    0
 49
-3.175
 74
    0
 49
0
 74
    0
 49
-3.175
 74
    0
 49
0
 74
    0
 49
-3.175
 74
    0
  0
LTYPE
  5
41
330
5
100
AcDbSymbolTableRecord
100
AcDbLinetypeTableRecord
  2
DIVIDEX2
 70
    0
  3
Divide (2x) ________  .  .  ________  .  .  _
 72
   65
 73
    6
 40
63.5
 49
25.4
 74
    0
 49
-12.7
 74
    0
 49
0
 74
    0
 49
-12.7
 74
    0
 49
0
 74
    0
 49
-12.7
 74
    0
  0
LTYPE
  5
42
330
5
100
AcDbSymbolTableRecord
100
AcDbLinetypeTableRecord
  2
BORDER
 70
    0
  3
Border __ __ . __ __ . __ __ . __ __ . __ __ .
 72
   65
 73
    6
 40
44.45
 49
12.7
 74
    0
 49
-6.35
 74
    0
 49
12.7
 74
    0
 49
-6.35
 74
    0
 49
0
 74
    0
 49
-6.35
 74
    0
  0
LTYPE
  5
43
330
5
100
AcDbSymbolTableRecord
100
AcDbLinetypeTableRecord
  2
BORDERTINY
 70
    0
  3
Border (.15x) __.__.__.__.__.__.__.__.__.__.__.
 72
   65
 73
    6
 40
6.6675
 49
1.905
 74
    0
 49
-0.9525
 74
    0
 49
1.905
 74
    0
 49
-0.9525
 74
    0
 49
0
 74
    0
 49
-0.9525
 74
    0
  0
LTYPE
  5
44
330
5
100
AcDbSymbolTableRecord
100
AcDbLinetypeTableRecord
  2
BORDER2
 70
    0
  3
Border (.5x) __.__.__.__.__.__.__.__.__.__.__.
 72
   65
 73
    6
 40
22.225
 49
6.35
 74
    0
 49
-3.175
 74
    0
 49
6.35
 74
    0
 49
-3.175
 74
    0
 49
0
 74
    0
 49
-3.175
 74
    0
  0
LTYPE
  5
45
330
5
100
AcDbSymbolTableRecord
100
AcDbLinetypeTableRecord
  2
BORDERX2
 70
    0
  3
Border (2x) ____  ____  .  ____  ____  .  ___
 72
   65
 73
    6
 40
88.89999999999999
 49
25.4
 74
    0
 49
-12.7
 74
    0
 49
25.4
 74
    0
 49
-12.7
 74
    0
 49
0
 74
    0
 49
-12.7
 74
    0
  0
LTYPE
  5
46
330
5
100
AcDbSymbolTableRecord
100
AcDbLinetypeTableRecord
  2
CENTER
 70
    0
  3
Center ____ _ ____ _ ____ _ ____ _ ____ _ ____
 72
   65
 73
    4
 40
50.8
 49
31.75
 74
    0
 49
-6.35
 74
    0
 49
6.35
 74
    0
 49
-6.35
 74
    0
  0
LTYPE
  5
47
330
5
100
AcDbSymbolTableRecord
100
AcDbLinetypeTableRecord
  2
CENTERTINY
 70
    0
  3
Center (.15x) ___ _ ___ _ ___ _ ___ _ ___ _ ___
 72
   65
 73
    4
 40
7.619999999999999
 49
4.7625
 74
    0
 49
-0.9525
 74
    0
 49
0.9525
 74
    0
 49
-0.9525
 74
    0
  0
LTYPE
  5
48
330
5
100
AcDbSymbolTableRecord
100
AcDbLinetypeTableRecord
  2
CENTER2
 70
    0
  3
Center (.5x) ___ _ ___ _ ___ _ ___ _ ___ _ ___
 72
   65
 73
    4
 40
28.575
 49
19.05
 74
    0
 49
-3.175
 74
    0
 49
3.175
 74
    0
 49
-3.175
 74
    0
  0
LTYPE
  5
49
330
5
100
AcDbSymbolTableRecord
100
AcDbLinetypeTableRecord
  2
CENTERX2
 70
    0
  3
Center (2x) ________  __  ________  __  _____
 72
   65
 73
    4
 40
101.6
 49
63.5
 74
    0
 49
-12.7
 74
    0
 49
12.7
 74
    0
 49
-12.7
 74
    0
  0
ENDTAB
  0
TABLE
  2
LAYER
  5
2
330
0
100
AcDbSymbolTable
 70
    1
  0
LAYER
  5
10
330
2
100
AcDbSymbolTableRecord
100
AcDbLayerTableRecord
  2
0
 70
    0
 62
    7
  6
CONTINUOUS
370
   50
390
F
  0
LAYER
  5
4A
330
2
100
AcDbSymbolTableRecord
100
AcDbLayerTableRecord
  2
background
 70
    0
 62
    7
  6
CONTINUOUS
370
   -3
390
F
  0
LAYER
  5
4B
330
2
100
AcDbSymbolTableRecord
100
AcDbLayerTableRecord
  2
highline
 70
    0
 62
    7
  6
CONTINUOUS
370
  200
390
F
  0
ENDTAB
  0
TABLE
  2
STYLE
  5
3
330
0
100
AcDbSymbolTable
 70
    3
  0
STYLE
  5
4C
330
2
100
AcDbSymbolTableRecord
100
AcDbTextStyleTableRecord
  2
Standard
 70
    0
 40
0
 41
1
 50
0
 71
    0
 42
1
  3
txt
  4

  0
ENDTAB
  0
TABLE
  2
VIEW
  5
6
330
0
100
AcDbSymbolTable
 70
    0
  0
ENDTAB
  0
TABLE
  2
UCS
  5
7
330
0
100
AcDbSymbolTable
 70
    0
  0
ENDTAB
  0
TABLE
  2
APPID
  5
9
330
0
100
AcDbSymbolTable
 70
    1
  0
APPID
  5
12
330
9
100
AcDbSymbolTableRecord
100
AcDbRegAppTableRecord
  2
ACAD
 70
    0
  0
APPID
  5
4D
330
9
100
AcDbSymbolTableRecord
100
AcDbRegAppTableRecord
  2
LibreCad
 70
    0
  0
ENDTAB
  0
TABLE
  2
DIMSTYLE
  5
A
330
0
100
AcDbSymbolTable
 70
    1
100
AcDbDimStyleTable
 71
    1
  0
DIMSTYLE
105
4E
330
A
100
AcDbSymbolTableRecord
100
AcDbDimStyleTableRecord
  2
Standard
 70
    0
 40
1
 41
2.5
 42
1
 43
0.38
 44
1.25
 45
0
 46
0
 47
0
 48
0
 49
1
140
2.5
141
0.09
142
0
143
25.4
144
1
145
0
146
1
147
0.625
148
0
 71
    0
 72
    0
 73
    0
 74
    1
 75
    0
 76
    0
 77
    0
 78
    1
 79
    0
170
    0
171
    2
172
    0
173
    0
174
    0
175
    0
176
    0
177
    0
178
    0
179
    2
271
    4
272
    4
273
    2
274
    2
275
    0
276
    0
277
    2
278
    0
279
    0
280
    0
281
    0
282
    0
283
    1
284
    0
285
    0
286
    0
288
    0
289
    3
340
standard
341

371
   -2
372
   -2
  0
ENDTAB
  0
TABLE
  2
BLOCK_RECORD
  5
1
330
0
100
AcDbSymbolTable
 70
    2
  0
BLOCK_RECORD
  5
1F
330
1
100
AcDbSymbolTableRecord
100
AcDbBlockTableRecord
  2
*Model_Space
 70
    0
280
    1
281
    0
  0
BLOCK_RECORD
  5
1E
330
1
100
AcDbSymbolTableRecord
100
AcDbBlockTableRecord
  2
*Paper_Space
 70
    0
280
    1
281
    0
  0
BLOCK_RECORD
  5
4F
330
1
100
AcDbSymbolTableRecord
100
AcDbBlockTableRecord
  2
*D3
 70
    0
280
    1
281
    0
  0
BLOCK_RECORD
  5
52
330
1
100
AcDbSymbolTableRecord
100
AcDbBlockTableRecord
  2
*D6
 70
    0
280
    1
281
    0
  0
BLOCK_RECORD
  5
55
330
1
100
AcDbSymbolTableRecord
100
AcDbBlockTableRecord
  2
*D4
 70
    0
280
    1
281
    0
  0
BLOCK_RECORD
  5
58
330
1
100
AcDbSymbolTableRecord
100
AcDbBlockTableRecord
  2
*D11
 70
    0
280
    1
281
    0
  0
BLOCK_RECORD
  5
5B
330
1
100
AcDbSymbolTableRecord
100
AcDbBlockTableRecord
  2
*D1
 70
    0
280
    1
281
    0
  0
BLOCK_RECORD
  5
5E
330
1
100
AcDbSymbolTableRecord
100
AcDbBlockTableRecord
  2
*D8
 70
    0
280
    1
281
    0
  0
BLOCK_RECORD
  5
61
330
1
100
AcDbSymbolTableRecord
100
AcDbBlockTableRecord
  2
*D5
 70
    0
280
    1
281
    0
  0
BLOCK_RECORD
  5
64
330
1
100
AcDbSymbolTableRecord
100
AcDbBlockTableRecord
  2
*D7
 70
    0
280
    1
281
    0
  0
BLOCK_RECORD
  5
67
330
1
100
AcDbSymbolTableRecord
100
AcDbBlockTableRecord
  2
*D9
 70
    0
280
    1
281
    0
  0
BLOCK_RECORD
  5
6A
330
1
100
AcDbSymbolTableRecord
100
AcDbBlockTableRecord
  2
*D2
 70
    0
280
    1
281
    0
  0
BLOCK_RECORD
  5
6D
330
1
100
AcDbSymbolTableRecord
100
AcDbBlockTableRecord
  2
*D10
 70
    0
280
    1
281
    0
  0
BLOCK_RECORD
  5
70
330
1
100
AcDbSymbolTableRecord
100
AcDbBlockTableRecord
  2
XShoe_bottomPlateSketch_back
 70
    0
280
    1
281
    0
  0
BLOCK_RECORD
  5
73
330
1
100
AcDbSymbolTableRecord
100
AcDbBlockTableRecord
  2
l_sole-0
 70
    0
280
    1
281
    0
  0
BLOCK_RECORD
  5
76
330
1
100
AcDbSymbolTableRecord
100
AcDbBlockTableRecord
  2
icub_sole2
 70
    0
280
    1
281
    0
  0
ENDTAB
  0
ENDSEC
  0
SECTION
  2
BLOCKS
  0
BLOCK
  5
20
330
1F
100
AcDbEntity
  8
0
100
AcDbBlockBegin
  2
*Model_Space
 70
    0
 10
0
 20
0
 30
0
  3
*Model_Space
  1

  0
ENDBLK
  5
21
330
1F
100
AcDbEntity
  8
0
100
AcDbBlockEnd
  0
BLOCK
  5
1C
330
1B
100
AcDbEntity
  8
0
100
AcDbBlockBegin
  2
*Paper_Space
 70
    0
 10
0
 20
0
 30
0
  3
*Paper_Space
  1

  0
ENDBLK
  5
1D
330
1F
100
AcDbEntity
  8
0
100
AcDbBlockEnd
  0
BLOCK
  5
50
330
4F
100
AcDbEntity
  8
0
100
AcDbBlockBegin
  2
*D3
 70
    1
 10
0
 20
0
  3
*D3
  1

  0
LINE
  5
79
100
AcDbEntity
  8
0
  6
ByBlock
 62
    0
370
   -2
100
AcDbLine
 10
310
 20
-316
 11
310
 21
-232
  0
SOLID
  5
7A
100
AcDbEntity
  8
0
  6
ByBlock
 62
    0
370
   -2
100
AcDbTrace
 10
310
 20
-316
 30
0
 11
309.5837153422272
 21
-313.5
 31
0
 12
310.4162846577728
 22
-313.5
 32
0
 13
310.4162846577728
 23
-313.5
 33
0
  0
SOLID
  5
7B
100
AcDbEntity
  8
0
  6
ByBlock
 62
    0
370
   -2
100
AcDbTrace
 10
310
 20
-232
 30
0
 11
310.4162846577728
 21
-234.5
 31
0
 12
309.5837153422272
 22
-234.5
 32
0
 13
309.5837153422272
 23
-234.5
 33
0
  0
MTEXT
  5
7C
100
AcDbEntity
  8
0
  6
CONTINUOUS
 62
    0
370
   -2
100
AcDbMText
 10
308.125
 20
-274
 30
0
 40
2.5
 41
11.94444444444445
 71
    5
 72
    1
  1
84.0000
  7
standard
210
0
220
0
230
1
 50
90
 73
    2
 44
1
  0
LINE
  5
7D
100
AcDbEntity
  8
0
  6
ByBlock
 62
    0
370
   -2
100
AcDbLine
 10
192
 20
-316
 11
311.25
 21
-316
  0
LINE
  5
7E
100
AcDbEntity
  8
0
  6
ByBlock
 62
    0
370
   -2
100
AcDbLine
 10
192
 20
-232
 11
311.25
 21
-232
  0
ENDBLK
  5
51
330
4F
100
AcDbEntity
  8
0
100
AcDbBlockEnd
  0
BLOCK
  5
53
330
52
100
AcDbEntity
  8
0
100
AcDbBlockBegin
  2
*D6
 70
    1
 10
0
 20
0
  3
*D6
  1

  0
LINE
  5
7F
100
AcDbEntity
  8
0
  6
ByBlock
 62
    0
370
   -2
100
AcDbLine
 10
-310
 20
-316
 11
-310
 21
-232
  0
SOLID
  5
80
100
AcDbEntity
  8
0
  6
ByBlock
 62
    0
370
   -2
100
AcDbTrace
 10
-310
 20
-316
 30
0
 11
-310.4162846577728
 21
-313.5
 31
0
 12
-309.5837153422272
 22
-313.5
 32
0
 13
-309.5837153422272
 23
-313.5
 33
0
  0
SOLID
  5
81
100
AcDbEntity
  8
0
  6
ByBlock
 62
    0
370
   -2
100
AcDbTrace
 10
-310
 20
-232
 30
0
 11
-309.5837153422272
 21
-234.5
 31
0
 12
-310.4162846577728
 22
-234.5
 32
0
 13
-310.4162846577728
 23
-234.5
 33
0
  0
MTEXT
  5
82
100
AcDbEntity
  8
0
  6
CONTINUOUS
 62
    0
370
   -2
100
AcDbMText
 10
-311.875
 20
-274
 30
0
 40
2.5
 41
11.94444444444445
 71
    5
 72
    1
  1
84.0000
  7
standard
210
0
220
0
230
1
 50
90
 73
    2
 44
1
  0
LINE
  5
83
100
AcDbEntity
  8
0
  6
ByBlock
 62
    0
370
   -2
100
AcDbLine
 10
-192
 20
-316
 11
-311.25
 21
-316
  0
LINE
  5
84
100
AcDbEntity
  8
0
  6
ByBlock
 62
    0
370
   -2
100
AcDbLine
 10
-192
 20
-232
 11
-311.25
 21
-232
  0
ENDBLK
  5
54
330
52
100
AcDbEntity
  8
0
100
AcDbBlockEnd
  0
BLOCK
  5
56
330
55
100
AcDbEntity
  8
0
100
AcDbBlockBegin
  2
*D4
 70
    1
 10
0
 20
0
  3
*D4
  1

  0
LINE
  5
85
100
AcDbEntity
  8
0
  6
ByBlock
 62
    0
370
   -2
100
AcDbLine
 10
310
 20
-232
 11
310
 21
-171
  0
SOLID
  5
86
100
AcDbEntity
  8
0
  6
ByBlock
 62
    0
370
   -2
100
AcDbTrace
 10
310
 20
-232
 30
0
 11
309.5837153422272
 21
-229.5
 31
0
 12
310.4162846577728
 22
-229.5
 32
0
 13
310.4162846577728
 23
-229.5
 33
0
  0
SOLID
  5
87
100
AcDbEntity
  8
0
  6
ByBlock
 62
    0
370
   -2
100
AcDbTrace
 10
310
 20
-171
 30
0
 11
310.4162846577728
 21
-173.5
 31
0
 12
309.5837153422272
 22
-173.5
 32
0
 13
309.5837153422272
 23
-173.5
 33
0
  0
MTEXT
  5
88
100
AcDbEntity
  8
0
  6
CONTINUOUS
 62
    0
370
   -2
100
AcDbMText
 10
308.125
 20
-201.5
 30
0
 40
2.5
 41
11.11111111111127
 71
    5
 72
    1
  1
61.0000
  7
standard
210
0
220
0
230
1
 50
90
 73
    2
 44
1
  0
LINE
  5
89
100
AcDbEntity
  8
0
  6
ByBlock
 62
    0
370
   -2
100
AcDbLine
 10
192
 20
-232
 11
311.25
 21
-232
  0
LINE
  5
8A
100
AcDbEntity
  8
0
  6
ByBlock
 62
    0
370
   -2
100
AcDbLine
 10
192
 20
-171
 11
311.25
 21
-171
  0
ENDBLK
  5
57
330
55
100
AcDbEntity
  8
0
100
AcDbBlockEnd
  0
BLOCK
  5
59
330
58
100
AcDbEntity
  8
0
100
AcDbBlockBegin
  2
*D11
 70
    1
 10
0
 20
0
  3
*D11
  1

  0
LINE
  5
8B
100
AcDbEntity
  8
background
  6
ByBlock
 62
    0
370
   -2
100
AcDbLine
 10
75
 20
-380
 11
257
 21
-380
  0
SOLID
  5
8C
100
AcDbEntity
  8
background
  6
ByBlock
 62
    0
370
   -2
100
AcDbTrace
 10
75
 20
-380
 30
0
 11
77.5
 21
-379.5837153422272
 31
0
 12
77.5
 22
-380.4162846577728
 32
0
 13
77.5
 23
-380.4162846577728
 33
0
  0
SOLID
  5
8D
100
AcDbEntity
  8
background
  6
ByBlock
 62
    0
370
   -2
100
AcDbTrace
 10
257
 20
-380
 30
0
 11
254.5
 21
-380.4162846577728
 31
0
 12
254.5
 22
-379.5837153422272
 32
0
 13
254.5
 23
-379.5837153422272
 33
0
  0
MTEXT
  5
8E
100
AcDbEntity
  8
background
  6
CONTINUOUS
 62
    0
370
   -2
100
AcDbMText
 10
166
 20
-378.125
 30
0
 40
2.5
 41
13.05555555555556
 71
    5
 72
    1
  1
182.0000
  7
standard
210
0
220
0
230
1
 50
0
 73
    2
 44
1
  0
LINE
  5
8F
100
AcDbEntity
  8
background
  6
ByBlock
 62
    0
370
   -2
100
AcDbLine
 10
75
 20
-233
 11
75
 21
-381.25
  0
LINE
  5
90
100
AcDbEntity
  8
background
  6
ByBlock
 62
    0
370
   -2
100
AcDbLine
 10
257
 20
-233
 11
257
 21
-381.25
  0
ENDBLK
  5
5A
330
58
100
AcDbEntity
  8
0
100
AcDbBlockEnd
  0
BLOCK
  5
5C
330
5B
100
AcDbEntity
  8
0
100
AcDbBlockBegin
  2
*D1
 70
    1
 10
0
 20
0
  3
*D1
  1

  0
LINE
  5
91
100
AcDbEntity
  8
0
  6
ByBlock
 62
    0
370
   -2
100
AcDbLine
 10
-8
 20
-490
 11
8
 21
-490
  0
SOLID
  5
92
100
AcDbEntity
  8
0
  6
ByBlock
 62
    0
370
   -2
100
AcDbTrace
 10
-3
 20
-490
 30
0
 11
-5.5
 21
-490.4162846577728
 31
0
 12
-5.5
 22
-489.5837153422272
 32
0
 13
-5.5
 23
-489.5837153422272
 33
0
  0
SOLID
  5
93
100
AcDbEntity
  8
0
  6
ByBlock
 62
    0
370
   -2
100
AcDbTrace
 10
3
 20
-490
 30
0
 11
5.5
 21
-489.5837153422272
 31
0
 12
5.5
 22
-490.4162846577728
 32
0
 13
5.5
 23
-490.4162846577728
 33
0
  0
MTEXT
  5
94
100
AcDbEntity
  8
0
  6
CONTINUOUS
 62
    0
370
   -2
100
AcDbMText
 10
8.486111111111189
 20
-488.125
 30
0
 40
2.5
 41
9.722222222222378
 71
    5
 72
    1
  1
6.0000
  7
standard
210
0
220
0
230
1
 50
0
 73
    2
 44
1
  0
LINE
  5
95
100
AcDbEntity
  8
0
  6
ByBlock
 62
    0
370
   -2
100
AcDbLine
 10
-3
 20
-465
 11
-3
 21
-491.25
  0
LINE
  5
96
100
AcDbEntity
  8
0
  6
ByBlock
 62
    0
370
   -2
100
AcDbLine
 10
3
 20
-465
 11
3
 21
-491.25
  0
ENDBLK
  5
5D
330
5B
100
AcDbEntity
  8
0
100
AcDbBlockEnd
  0
BLOCK
  5
5F
330
5E
100
AcDbEntity
  8
0
100
AcDbBlockBegin
  2
*D8
 70
    1
 10
0
 20
0
  3
*D8
  1

  0
LINE
  5
97
100
AcDbEntity
  8
background
  6
ByBlock
 62
    0
370
   -2
100
AcDbLine
 10
-75
 20
-300
 11
-3
 21
-300
  0
SOLID
  5
98
100
AcDbEntity
  8
background
  6
ByBlock
 62
    0
370
   -2
100
AcDbTrace
 10
-75
 20
-300
 30
0
 11
-72.5
 21
-299.5837153422272
 31
0
 12
-72.5
 22
-300.4162846577728
 32
0
 13
-72.5
 23
-300.4162846577728
 33
0
  0
SOLID
  5
99
100
AcDbEntity
  8
background
  6
ByBlock
 62
    0
370
   -2
100
AcDbTrace
 10
-3
 20
-300
 30
0
 11
-5.5
 21
-300.4162846577728
 31
0
 12
-5.5
 22
-299.5837153422272
 32
0
 13
-5.5
 23
-299.5837153422272
 33
0
  0
MTEXT
  5
9A
100
AcDbEntity
  8
background
  6
CONTINUOUS
 62
    0
370
   -2
100
AcDbMText
 10
-39
 20
-298.125
 30
0
 40
2.5
 41
11.66666666666667
 71
    5
 72
    1
  1
72.0000
  7
standard
210
0
220
0
230
1
 50
0
 73
    2
 44
1
  0
LINE
  5
9B
100
AcDbEntity
  8
background
  6
ByBlock
 62
    0
370
   -2
100
AcDbLine
 10
-75
 20
-233
 11
-75
 21
-301.25
  0
LINE
  5
9C
100
AcDbEntity
  8
background
  6
ByBlock
 62
    0
370
   -2
100
AcDbLine
 10
-3
 20
-233
 11
-3
 21
-301.25
  0
ENDBLK
  5
60
330
5E
100
AcDbEntity
  8
0
100
AcDbBlockEnd
  0
BLOCK
  5
62
330
61
100
AcDbEntity
  8
0
100
AcDbBlockBegin
  2
*D5
 70
    1
 10
0
 20
0
  3
*D5
  1

  0
LINE
  5
9D
100
AcDbEntity
  8
0
  6
ByBlock
 62
    0
370
   -2
100
AcDbLine
 10
-257
 20
20.00000000000004
 11
-190.4
 21
20.00000000000003
  0
SOLID
  5
9E
100
AcDbEntity
  8
0
  6
ByBlock
 62
    0
370
   -2
100
AcDbTrace
 10
-257
 20
20.00000000000004
 30
0
 11
-254.5
 21
20.41628465777288
 31
0
 12
-254.5
 22
19.58371534222719
 32
0
 13
-254.5
 23
19.58371534222719
 33
0
  0
SOLID
  5
9F
100
AcDbEntity
  8
0
  6
ByBlock
 62
    0
370
   -2
100
AcDbTrace
 10
-190.4
 20
20.00000000000003
 30
0
 11
-192.9
 21
19.58371534222719
 31
0
 12
-192.9
 22
20.41628465777287
 32
0
 13
-192.9
 23
20.41628465777287
 33
0
  0
MTEXT
  5
A0
100
AcDbEntity
  8
0
  6
CONTINUOUS
 62
    0
370
   -2
100
AcDbMText
 10
-223.7
 20
21.87500000000003
 30
0
 40
2.5
 41
11.66666666666713
 71
    5
 72
    1
  1
66.6000
  7
standard
210
0
220
0
230
1
 50
0
 73
    2
 44
1
  0
LINE
  5
A1
100
AcDbEntity
  8
0
  6
ByBlock
 62
    0
370
   -2
100
AcDbLine
 10
-257
 20
-231
 11
-257
 21
21.25000000000004
  0
LINE
  5
A2
100
AcDbEntity
  8
0
  6
ByBlock
 62
    0
370
   -2
100
AcDbLine
 10
-190.4
 20
-250.3
 11
-190.4
 21
21.25000000000003
  0
ENDBLK
  5
63
330
61
100
AcDbEntity
  8
0
100
AcDbBlockEnd
  0
BLOCK
  5
65
330
64
100
AcDbEntity
  8
0
100
AcDbBlockBegin
  2
*D7
 70
    1
 10
0
 20
0
  3
*D7
  1

  0
LINE
  5
A3
100
AcDbEntity
  8
0
  6
ByBlock
 62
    0
370
   -2
100
AcDbLine
 10
-310
 20
-232
 11
-310
 21
-171
  0
SOLID
  5
A4
100
AcDbEntity
  8
0
  6
ByBlock
 62
    0
370
   -2
100
AcDbTrace
 10
-310
 20
-232
 30
0
 11
-310.4162846577728
 21
-229.5
 31
0
 12
-309.5837153422272
 22
-229.5
 32
0
 13
-309.5837153422272
 23
-229.5
 33
0
  0
SOLID
  5
A5
100
AcDbEntity
  8
0
  6
ByBlock
 62
    0
370
   -2
100
AcDbTrace
 10
-310
 20
-171
 30
0
 11
-309.5837153422272
 21
-173.5
 31
0
 12
-310.4162846577728
 22
-173.5
 32
0
 13
-310.4162846577728
 23
-173.5
 33
0
  0
MTEXT
  5
A6
100
AcDbEntity
  8
0
  6
CONTINUOUS
 62
    0
370
   -2
100
AcDbMText
 10
-311.875
 20
-201.5
 30
0
 40
2.5
 41
11.11111111111127
 71
    5
 72
    1
  1
61.0000
  7
standard
210
0
220
0
230
1
 50
90
 73
    2
 44
1
  0
LINE
  5
A7
100
AcDbEntity
  8
0
  6
ByBlock
 62
    0
370
   -2
100
AcDbLine
 10
-192
 20
-232
 11
-311.25
 21
-232
  0
LINE
  5
A8
100
AcDbEntity
  8
0
  6
ByBlock
 62
    0
370
   -2
100
AcDbLine
 10
-192
 20
-171
 11
-311.25
 21
-171
  0
ENDBLK
  5
66
330
64
100
AcDbEntity
  8
0
100
AcDbBlockEnd
  0
BLOCK
  5
68
330
67
100
AcDbEntity
  8
0
100
AcDbBlockBegin
  2
*D9
 70
    1
 10
0
 20
0
  3
*D9
  1

  0
LINE
  5
A9
100
AcDbEntity
  8
background
  6
ByBlock
 62
    0
370
   -2
100
AcDbLine
 10
3
 20
-300
 11
75
 21
-300
  0
SOLID
  5
AA
100
AcDbEntity
  8
background
  6
ByBlock
 62
    0
370
   -2
100
AcDbTrace
 10
3
 20
-300
 30
0
 11
5.5
 21
-299.5837153422272
 31
0
 12
5.5
 22
-300.4162846577728
 32
0
 13
5.5
 23
-300.4162846577728
 33
0
  0
SOLID
  5
AB
100
AcDbEntity
  8
background
  6
ByBlock
 62
    0
370
   -2
100
AcDbTrace
 10
75
 20
-300
 30
0
 11
72.5
 21
-300.4162846577728
 31
0
 12
72.5
 22
-299.5837153422272
 32
0
 13
72.5
 23
-299.5837153422272
 33
0
  0
MTEXT
  5
AC
100
AcDbEntity
  8
background
  6
CONTINUOUS
 62
    0
370
   -2
100
AcDbMText
 10
39
 20
-298.125
 30
0
 40
2.5
 41
11.66666666666667
 71
    5
 72
    1
  1
72.0000
  7
standard
210
0
220
0
230
1
 50
0
 73
    2
 44
1
  0
LINE
  5
AD
100
AcDbEntity
  8
background
  6
ByBlock
 62
    0
370
   -2
100
AcDbLine
 10
3
 20
-299
 11
3
 21
-298.75
  0
LINE
  5
AE
100
AcDbEntity
  8
background
  6
ByBlock
 62
    0
370
   -2
100
AcDbLine
 10
75
 20
-299
 11
75
 21
-298.75
  0
ENDBLK
  5
69
330
67
100
AcDbEntity
  8
0
100
AcDbBlockEnd
  0
BLOCK
  5
6B
330
6A
100
AcDbEntity
  8
0
100
AcDbBlockBegin
  2
*D2
 70
    1
 10
0
 20
0
  3
*D2
  1

  0
LINE
  5
AF
100
AcDbEntity
  8
0
  6
ByBlock
 62
    0
370
   -2
100
AcDbLine
 10
257
 20
19.99999999999997
 11
190.4
 21
19.99999999999997
  0
SOLID
  5
B0
100
AcDbEntity
  8
0
  6
ByBlock
 62
    0
370
   -2
100
AcDbTrace
 10
257
 20
19.99999999999997
 30
0
 11
254.5
 21
19.58371534222713
 31
0
 12
254.5
 22
20.41628465777281
 32
0
 13
254.5
 23
20.41628465777281
 33
0
  0
SOLID
  5
B1
100
AcDbEntity
  8
0
  6
ByBlock
 62
    0
370
   -2
100
AcDbTrace
 10
190.4
 20
19.99999999999997
 30
0
 11
192.9
 21
20.41628465777281
 31
0
 12
192.9
 22
19.58371534222713
 32
0
 13
192.9
 23
19.58371534222713
 33
0
  0
MTEXT
  5
B2
100
AcDbEntity
  8
0
  6
CONTINUOUS
 62
    0
370
   -2
100
AcDbMText
 10
223.7
 20
21.87499999999997
 30
0
 40
2.5
 41
11.66666666666713
 71
    5
 72
    1
  1
66.6000
  7
standard
210
0
220
0
230
1
 50
360
 73
    2
 44
1
  0
LINE
  5
B3
100
AcDbEntity
  8
0
  6
ByBlock
 62
    0
370
   -2
100
AcDbLine
 10
257
 20
-231
 11
257
 21
21.24999999999997
  0
LINE
  5
B4
100
AcDbEntity
  8
0
  6
ByBlock
 62
    0
370
   -2
100
AcDbLine
 10
190.4
 20
-250.3
 11
190.4
 21
21.24999999999997
  0
ENDBLK
  5
6C
330
6A
100
AcDbEntity
  8
0
100
AcDbBlockEnd
  0
BLOCK
  5
6E
330
6D
100
AcDbEntity
  8
0
100
AcDbBlockBegin
  2
*D10
 70
    1
 10
0
 20
0
  3
*D10
  1

  0
LINE
  5
B5
100
AcDbEntity
  8
background
  6
ByBlock
 62
    0
370
   -2
100
AcDbLine
 10
-75
 20
-380
 11
-257
 21
-380
  0
SOLID
  5
B6
100
AcDbEntity
  8
background
  6
ByBlock
 62
    0
370
   -2
100
AcDbTrace
 10
-75
 20
-380
 30
0
 11
-77.5
 21
-380.4162846577728
 31
0
 12
-77.5
 22
-379.5837153422272
 32
0
 13
-77.5
 23
-379.5837153422272
 33
0
  0
SOLID
  5
B7
100
AcDbEntity
  8
background
  6
ByBlock
 62
    0
370
   -2
100
AcDbTrace
 10
-257
 20
-380
 30
0
 11
-254.5
 21
-379.5837153422272
 31
0
 12
-254.5
 22
-380.4162846577728
 32
0
 13
-254.5
 23
-380.4162846577728
 33
0
  0
MTEXT
  5
B8
100
AcDbEntity
  8
background
  6
CONTINUOUS
 62
    0
370
   -2
100
AcDbMText
 10
-166
 20
-378.125
 30
0
 40
2.5
 41
13.05555555555556
 71
    5
 72
    1
  1
182.0000
  7
standard
210
0
220
0
230
1
 50
360
 73
    2
 44
1
  0
LINE
  5
B9
100
AcDbEntity
  8
background
  6
ByBlock
 62
    0
370
   -2
100
AcDbLine
 10
-75
 20
-233
 11
-75
 21
-381.25
  0
LINE
  5
BA
100
AcDbEntity
  8
background
  6
ByBlock
 62
    0
370
   -2
100
AcDbLine
 10
-257
 20
-233
 11
-257
 21
-381.25
  0
ENDBLK
  5
6F
330
6D
100
AcDbEntity
  8
0
100
AcDbBlockEnd
  0
BLOCK
  5
71
330
70
100
AcDbEntity
  8
0
100
AcDbBlockBegin
  2
XShoe_bottomPlateSketch_back
 70
    0
 10
0
 20
0
  3
XShoe_bottomPlateSketch_back
  1

  0
LINE
  5
BB
100
AcDbEntity
  8
0
  6
ByLayer
 62
  256
370
   -1
100
AcDbLine
 10
-8.999476847152735
 20
82.99962036660767
 11
51.00052315284726
 21
82.99962036660767
  0
LINE
  5
BC
100
AcDbEntity
  8
0
  6
ByLayer
 62
  256
370
   -1
100
AcDbLine
 10
51.00052315284726
 20
82.99962036660767
 11
51.00052315284726
 21
-7.000379633392331
  0
LINE
  5
BD
100
AcDbEntity
  8
0
  6
ByLayer
 62
  256
370
   -1
100
AcDbLine
 10
51.00052315284726
 20
-7.000379633392331
 11
-8.999476847152735
 21
-7.000379633392331
  0
LINE
  5
BE
100
AcDbEntity
  8
0
  6
ByLayer
 62
  256
370
   -1
100
AcDbLine
 10
-8.999476847152735
 20
-7.000379633392331
 11
-8.999476847152735
 21
82.99962036660767
  0
CIRCLE
  5
BF
100
AcDbEntity
  8
0
  6
ByLayer
 62
  256
370
   -1
100
AcDbCircle
 10
21.00052315284726
 20
17.99962036660767
 40
22.6
  0
LINE
  5
C0
100
AcDbEntity
  8
0
  6
ByLayer
 62
  256
370
   -1
100
AcDbLine
 10
51.00052315284726
 20
17.99962036660767
 11
-8.99947684715274
 21
17.99962036660767
  0
LINE
  5
C1
100
AcDbEntity
  8
0
  6
ByLayer
 62
  256
370
   -1
100
AcDbLine
 10
21.00052315284726
 20
-7.000379633392317
 11
21.00052315284726
 21
82.99962036660767
  0
CIRCLE
  5
C2
100
AcDbEntity
  8
0
  6
ByLayer
 62
  256
370
   -1
100
AcDbCircle
 10
0.0005231528472648961
 20
-0.0003796333923311579
 40
1.5
  0
CIRCLE
  5
C3
100
AcDbEntity
  8
0
  6
ByLayer
 62
  256
370
   -1
100
AcDbCircle
 10
42.00052315284726
 20
-0.0003796333923311579
 40
1.5
  0
CIRCLE
  5
C4
100
AcDbEntity
  8
0
  6
ByLayer
 62
  256
370
   -1
100
AcDbCircle
 10
0.0005231528472648961
 20
35.99962036660767
 40
1.5
  0
CIRCLE
  5
C5
100
AcDbEntity
  8
0
  6
ByLayer
 62
  256
370
   -1
100
AcDbCircle
 10
42.00052315284726
 20
35.99962036660767
 40
1.5
  0
ENDBLK
  5
72
330
70
100
AcDbEntity
  8
0
100
AcDbBlockEnd
  0
BLOCK
  5
74
330
73
100
AcDbEntity
  8
0
100
AcDbBlockBegin
  2
l_sole-0
 70
    0
 10
0
 20
0
  3
l_sole-0
  1

  0
LWPOLYLINE
  5
C6
100
AcDbEntity
  8
background
  6
ByLayer
 62
    7
370
   -1
100
AcDbPolyline
 90
    9
 70
    0
 43
0
 10
123.123459
 20
193.393027
 10
125.697452
 20
185.092531
 10
124.55718
 20
176.509064
 10
123.693594
 20
171.071299
 10
123.123459
 20
165.345843
 10
121.404669
 20
159.912791
 10
120.549467
 20
155.904028
 10
117.111889
 20
146.745187
 10
113.967762
 20
136.727997
  0
LWPOLYLINE
  5
C7
100
AcDbEntity
  8
highline
  6
ByLayer
 62
    7
370
   50
100
AcDbPolyline
 90
   50
 70
    1
 43
0
 10
115.959652
 20
201.858724
 10
111.37131
 20
204.153218
 10
106.87086
 20
205.387707
 10
101.225257
 20
205.565101
 10
95.752852
 20
205.387707
 10
89.665222
 20
204.06452
 10
83.753377
 20
201.94742
 10
76.784265
 20
198.152347
 10
70.60616299999998
 20
193.035539
 10
65.929934
 20
187.830033
 10
62.22565600000001
 20
181.477283
 10
60.020668
 20
176.447717
 10
58.167236
 20
169.565691
 10
57.461536
 20
161.272103
 10
58.07934699999998
 20
155.006917
 10
61.51995600000001
 20
142.477357
 10
63.107134
 20
132.419625
 10
63.107134
 20
125.713538
 10
62.04987700000001
 20
114.242092
 10
60.37222600000001
 20
102.596542
 10
59.84230400000001
 20
94.12524000000001
 10
60.10855699999999
 20
86.096287
 10
61.16581500000001
 20
78.33089200000001
 10
64.34275500000001
 20
71.272875
 10
69.28265199999998
 20
66.154612
 10
75.81231
 20
63.067665
 10
87.902272
 20
62.360993
 10
102.548767
 20
62.890267
 10
109.342102
 20
65.449403
 10
115.959652
 20
71.272875
 10
119.04612
 20
78.154905
 10
119.930182
 20
82.390553
 10
119.57604
 20
91.036342
 10
117.900967
 20
98.80211300000001
 10
114.899805
 20
107.537355
 10
113.48841
 20
113.183115
 10
112.69482
 20
119.271232
 10
112.606927
 20
128.448503
 10
113.967757
 20
136.728
 10
116.92902
 20
145.91823
 10
119.84229
 20
153.682168
 10
122.310945
 20
162.152774
 10
123.900712
 20
169.829466
 10
124.694302
 20
175.035725
 10
125.224222
 20
182.799283
 10
124.957965
 20
187.212331
 10
123.123457
 20
193.393028
 10
122.48931
 20
195.063887
 10
120.36963
 20
198.240989
 10
120.36963
 20
198.240989
  0
LWPOLYLINE
  5
C8
100
AcDbEntity
  8
highline
  6
ByLayer
 62
    7
370
   50
100
AcDbPolyline
 90
    2
 70
    0
 43
0
 10
38.206354
 20
110.175
 10
136.3011
 20
110.17575
  0
LWPOLYLINE
  5
C9
100
AcDbEntity
  8
highline
  6
ByLayer
 62
    7
370
   50
100
AcDbPolyline
 90
    2
 70
    0
 43
0
 10
94.379625
 20
156.524952
 10
94.270792
 20
69.387585
  0
ENDBLK
  5
75
330
73
100
AcDbEntity
  8
0
100
AcDbBlockEnd
  0
BLOCK
  5
77
330
76
100
AcDbEntity
  8
0
100
AcDbBlockBegin
  2
icub_sole2
 70
    0
 10
0
 20
0
  3
icub_sole2
  1

  0
INSERT
  5
CA
100
AcDbEntity
  8
0
  6
ByLayer
 62
  256
370
   50
100
AcDbBlockReference
  2
l_sole-0
 10
125.573
 20
146.688
 30
0
 41
1.3314
 42
1.3314
 43
0
 50
180
 70
    1
 71
    1
 44
0
 45
0
  0
ENDBLK
  5
78
330
76
100
AcDbEntity
  8
0
100
AcDbBlockEnd
  0
ENDSEC
  0
SECTION
  2
ENTITIES
  0
IMAGE
  5
CD
100
AcDbEntity
  8
background
  6
ByLayer
 62
  256
370
   -1
100
AcDbRasterImage
 10
-500
 20
-450
 30
0
 11
0.1
 21
0
 31
0
 12
6.123233995736766e-18
 22
0.1
 32
0
 13
1000
 23
1117
340
CB
 70
    1
280
    0
281
   50
282
   50
283
    0
360
CC
  0
IMAGE
  5
CF
100
AcDbEntity
  8
background
  6
ByLayer
 62
  256
370
   -1
100
AcDbRasterImage
 10
400
 20
-450
 30
0
 11
0.1
 21
0
 31
0
 12
6.123233995736766e-18
 22
0.1
 32
0
 13
1000
 23
1117
340
CB
 70
    1
280
    0
281
   50
282
   50
283
    0
360
CE
  0
LWPOLYLINE
  5
D0
100
AcDbEntity
  8
0
  6
ByLayer
 62
  256
370
   -1
100
AcDbPolyline
 90
    4
 70
    1
 43
0
 10
0
 20
-100
 10
0
 20
-100
 10
0
 20
100
 10
0
 20
100
  0
LINE
  5
D1
100
AcDbEntity
  8
0
  6
ByLayer
 62
  256
370
   -1
100
AcDbLine
 10
-400
 20
0
 11
1000
 21
0
  0
LINE
  5
D2
100
AcDbEntity
  8
0
  6
ByLayer
 62
  256
370
   -1
100
AcDbLine
 10
-1000
 20
0
 11
1000
 21
0
  0
LINE
  5
D3
100
AcDbEntity
  8
0
  6
ByLayer
 62
  256
370
   -1
100
AcDbLine
 10
0
 20
1000
 11
0
 21
-1000
  0
DIMENSION
  5
D4
100
AcDbEntity
  8
0
  6
ByLayer
 62
  256
370
   -1
100
AcDbDimension
  2
*D1
 10
3
 20
-490
 30
0
 11
1.148106374200644e-16
 21
-488.125
 31
0
 70
   32
 71
    5
  3
Standard
 53
0
210
0
220
0
230
1
100
AcDbAlignedDimension
 13
-3
 23
-464
 33
0
 14
3
 24
-464
 34
0
100
AcDbRotatedDimension
  0
LINE
  5
D5
100
AcDbEntity
  8
0
  6
ByLayer
 62
  256
370
   -1
100
AcDbLine
 10
-3
 20
1000
 11
-3
 21
-1000
  0
LINE
  5
D6
100
AcDbEntity
  8
0
  6
ByLayer
 62
  256
370
   -1
100
AcDbLine
 10
3
 20
1000
 11
3
 21
-1000
  0
LINE
  5
D7
100
AcDbEntity
  8
0
  6
ByLayer
 62
  256
370
   -1
100
AcDbLine
 10
-3
 20
1000
 11
-3
 21
-1000
  0
LINE
  5
D8
100
AcDbEntity
  8
0
  6
ByLayer
 62
  256
370
   -1
100
AcDbLine
 10
-340
 20
1000
 11
-340
 21
0
  0
LINE
  5
D9
100
AcDbEntity
  8
0
  6
ByLayer
 62
  256
370
   -1
100
AcDbLine
 10
-340
 20
-464
 11
-340
 21
-999.9999999999999
  0
LINE
  5
DA
100
AcDbEntity
  8
0
  6
ByLayer
 62
  256
370
   -1
100
AcDbLine
 10
340
 20
1000
 11
340
 21
0
  0
LINE
  5
DB
100
AcDbEntity
  8
0
  6
ByLayer
 62
  256
370
   -1
100
AcDbLine
 10
340
 20
-464
 11
340
 21
-999.9999999999999
  0
LINE
  5
DC
100
AcDbEntity
  8
0
  6
ByLayer
 62
  256
370
   -1
100
AcDbLine
 10
-1000
 20
-464
 11
1000
 21
-464
  0
LINE
  5
DD
100
AcDbEntity
  8
0
  6
ByLayer
 62
  256
370
   -1
100
AcDbLine
 10
-511
 20
1000
 11
-511
 21
-1000
  0
LINE
  5
DE
100
AcDbEntity
  8
0
  6
ByLayer
 62
  256
370
   -1
100
AcDbLine
 10
511
 20
1000
 11
511
 21
-1000
  0
LINE
  5
DF
100
AcDbEntity
  8
0
  6
ByLayer
 62
  256
370
   50
100
AcDbLine
 10
511
 20
0
 11
3
 21
-464
  0
LINE
  5
E0
100
AcDbEntity
  8
0
  6
ByLayer
 62
  256
370
   50
100
AcDbLine
 10
3
 20
0
 11
511
 21
-464
  0
LINE
  5
E1
100
AcDbEntity
  8
0
  6
ByLayer
 62
  256
370
   50
100
AcDbLine
 10
-511
 20
0
 11
-3
 21
-464
  0
LINE
  5
E2
100
AcDbEntity
  8
0
  6
ByLayer
 62
  256
370
   50
100
AcDbLine
 10
-3
 20
0
 11
-511
 21
-464
  0
LWPOLYLINE
  5
E3
100
AcDbEntity
  8
0
  6
ByLayer
 62
  256
370
   50
100
AcDbPolyline
 90
    5
 70
    1
 43
0
 10
-3
 20
0
 10
-511
 20
0
 10
-511
 20
-464
 10
-3
 20
-464
 10
-3
 20
-464
  0
LWPOLYLINE
  5
E4
100
AcDbEntity
  8
0
  6
ByLayer
 62
  256
370
   50
100
AcDbPolyline
 90
    5
 70
    1
 43
0
 10
3
 20
0
 10
511
 20
0
 10
511
 20
-464
 10
3
 20
-464
 10
3
 20
-464
  0
CIRCLE
  5
E5
100
AcDbEntity
  8
0
  6
ByLayer
 62
  256
370
   70
100
AcDbCircle
 10
164.4486673753147
 20
-319.1550241353925
 40
1.699999999999996
  0
CIRCLE
  5
E6
100
AcDbEntity
  8
0
  6
ByLayer
 62
  256
370
   70
100
AcDbCircle
 10
169.4486673753148
 20
-298.1550241353925
 40
2.64999999999997
  0
CIRCLE
  5
E7
100
AcDbEntity
  8
0
  6
ByLayer
 62
  256
370
   70
100
AcDbCircle
 10
211.4486673753148
 20
-298.1550241353925
 40
2.649999999999963
  0
SPLINE
  5
E8
100
AcDbEntity
  8
0
  6
ByLayer
 62
  256
370
   70
100
AcDbSpline
210
0
220
0
230
0
 70
    8
 71
    3
 72
   20
 73
   16
 74
    0
 42
1e-07
 43
1e-07
 40
0
 40
0
 40
0
 40
0
 40
0.07692307692307693
 40
0.1538461538461539
 40
0.2307692307692308
 40
0.3076923076923077
 40
0.3846153846153846
 40
0.4615384615384616
 40
0.5384615384615385
 40
0.6153846153846154
 40
0.6923076923076923
 40
0.7692307692307693
 40
0.8461538461538463
 40
0.9230769230769231
 40
1
 40
1
 40
1
 40
1
 10
146.5712704798033
 20
-274.4318607228738
 30
0
 10
146.4690670175024
 20
-276.0707868060688
 30
0
 10
145.9152421989431
 20
-285.7508878138257
 30
0
 10
145.830454819025
 20
-308.8191935699816
 30
0
 10
147.8928288666222
 20
-333.970896298308
 30
0
 10
164.9706469501079
 20
-354.4407715526261
 30
0
 10
177.5771793721048
 20
-359.7806466389328
 30
0
 10
193.2248386702169
 20
-361.8635330215182
 30
0
 10
208.0791755028874
 20
-358.4585733404917
 30
0
 10
214.3537312465655
 20
-353.676204332734
 30
0
 10
221.9453942644536
 20
-346.4386111693612
 30
0
 10
229.3347661758853
 20
-333.5371012903094
 30
0
 10
233.6965547155266
 20
-313.5724784299767
 30
0
 10
236.3678385952473
 20
-293.0769823740082
 30
0
 10
237.1296107639723
 20
-282.7514726199118
 30
0
 10
237.4557384416439
 20
-278.7150444598479
 30
0
  0
CIRCLE
  5
E9
100
AcDbEntity
  8
0
  6
ByLayer
 62
  256
370
   70
100
AcDbCircle
 10
169.4486673753147
 20
-334.1550241353926
 40
2.649999999999999
  0
CIRCLE
  5
EA
100
AcDbEntity
  8
0
  6
ByLayer
 62
  256
370
   70
100
AcDbCircle
 10
211.4486673753147
 20
-334.1550241353926
 40
2.64999999999992
  0
CIRCLE
  5
EB
100
AcDbEntity
  8
0
  6
ByLayer
 62
  256
370
   70
100
AcDbCircle
 10
216.4486673753148
 20
-319.1550241353925
 40
1.699999999999989
  0
LINE
  5
EC
100
AcDbEntity
  8
0
  6
ByLayer
 62
  256
370
   70
100
AcDbLine
 10
207.5531817782148
 20
-246.2990343205926
 11
176.5131084787146
 21
-246.2990343205926
  0
ARC
  5
ED
100
AcDbEntity
  8
0
  6
ByLayer
 62
  256
370
   70
100
AcDbCircle
 10
176.5131084787146
 20
-276.2990343205926
 40
29.99999999999996
100
AcDbArc
 50
90
 51
176.4316547862
  0
ARC
  5
EE
100
AcDbEntity
  8
0
  6
ByLayer
 62
  256
370
   70
100
AcDbCircle
 10
207.5531817782148
 20
-276.2990343205926
 40
29.99999999999999
100
AcDbArc
 50
355.3807581711
 51
90
  0
INSERT
  5
EF
100
AcDbEntity
  8
0
  6
ByLayer
 62
  256
370
   70
100
AcDbBlockReference
  2
XShoe_bottomPlateSketch_back
 10
169.4482
 20
-334.1538000000001
 30
0
 41
1
 42
1
 43
0
 50
360
 70
    1
 71
    1
 44
0
 45
0
  0
SPLINE
  5
F0
100
AcDbEntity
  8
0
  6
ByLayer
 62
  256
370
   70
100
AcDbSpline
210
0
220
0
230
0
 70
    8
 71
    3
 72
    8
 73
    4
 74
    0
 42
1e-07
 43
1e-07
 40
0
 40
0
 40
0
 40
0
 40
1
 40
1
 40
1
 40
1
 10
245.7276956150999
 20
-184.8211726315701
 30
0
 10
246.9358948819753
 20
-161.4337432470249
 30
0
 10
241.2216899273039
 20
-145.350090329567
 30
0
 10
238.646817870825
 20
-135.1527583834539
 30
0
  0
SPLINE
  5
F1
100
AcDbEntity
  8
0
  6
ByLayer
 62
  256
370
   70
100
AcDbSpline
210
0
220
0
230
0
 70
    8
 71
    3
 72
    8
 73
    4
 74
    0
 42
1e-07
 43
1e-07
 40
0
 40
0
 40
0
 40
0
 40
1
 40
1
 40
1
 40
1
 10
237.1229466184474
 20
-241.8059137633361
 30
0
 10
241.5589159886156
 20
-210.9731921911477
 30
0
 10
245.2198592265154
 20
-194.652883410067
 30
0
 10
245.7276956150999
 20
-184.8211726315701
 30
0
  0
SPLINE
  5
F2
100
AcDbEntity
  8
0
  6
ByLayer
 62
  256
370
   70
100
AcDbSpline
210
0
220
0
230
0
 70
    8
 71
    3
 72
    8
 73
    4
 74
    0
 42
1e-07
 43
1e-07
 40
0
 40
0
 40
0
 40
0
 40
1
 40
1
 40
1
 40
1
 10
230.1701005045343
 20
-301.6190854060108
 30
0
 10
231.4823958997845
 20
-293.4567557884358
 30
0
 10
235.8379069410739
 20
-250.736773303481
 30
0
 10
237.1229466184474
 20
-241.8059137633361
 30
0
  0
SPLINE
  5
F3
100
AcDbEntity
  8
0
  6
ByLayer
 62
  256
370
   70
100
AcDbSpline
210
0
220
0
230
0
 70
    8
 71
    3
 72
    8
 73
    4
 74
    0
 42
1e-07
 43
1e-07
 40
0
 40
0
 40
0
 40
0
 40
1
 40
1
 40
1
 40
1
 10
226.3023799580295
 20
-320.2234385953701
 30
0
 10
227.7320556644511
 20
-314.9661648892031
 30
0
 10
229.0212958466194
 20
-308.7647138260829
 30
0
 10
230.1701005045343
 20
-301.6190854060108
 30
0
  0
SPLINE
  5
F4
100
AcDbEntity
  8
0
  6
ByLayer
 62
  256
370
   70
100
AcDbSpline
210
0
220
0
230
0
 70
    8
 71
    3
 72
    8
 73
    4
 74
    0
 42
1e-07
 43
1e-07
 40
0
 40
0
 40
0
 40
0
 40
1
 40
1
 40
1
 40
1
 10
188.2499934405019
 20
-354.5695425922539
 30
0
 10
210.2194234756328
 20
-355.112370024801
 30
0
 10
222.9035523148087
 20
-343.663668692506
 30
0
 10
226.3023799580295
 20
-320.2234385953701
 30
0
  0
SPLINE
  5
F5
100
AcDbEntity
  8
0
  6
ByLayer
 62
  256
370
   70
100
AcDbSpline
210
0
220
0
230
0
 70
    8
 71
    3
 72
    8
 73
    4
 74
    0
 42
1e-07
 43
1e-07
 40
0
 40
0
 40
0
 40
0
 40
1
 40
1
 40
1
 40
1
 10
154.7264380959581
 20
-317.0508657201979
 30
0
 10
157.0517827848931
 20
-327.5652424944408
 30
0
 10
158.7395160700189
 20
-351.519756288633
 30
0
 10
188.2499934405021
 20
-354.5695425922548
 30
0
  0
SPLINE
  5
F6
100
AcDbEntity
  8
0
  6
ByLayer
 62
  256
370
   70
100
AcDbSpline
210
0
220
0
230
0
 70
    8
 71
    3
 72
    8
 73
    4
 74
    0
 42
1e-07
 43
1e-07
 40
0
 40
0
 40
0
 40
0
 40
1
 40
1
 40
1
 40
1
 10
154.4560616930855
 20
-233.2388047002898
 30
0
 10
155.9435127822204
 20
-245.075571212805
 30
0
 10
151.8977348838902
 20
-304.2594858188128
 30
0
 10
154.726438095958
 20
-317.050865720197
 30
0
  0
SPLINE
  5
F7
100
AcDbEntity
  8
0
  6
ByLayer
 62
  256
370
   70
100
AcDbSpline
210
0
220
0
230
0
 70
    8
 71
    3
 72
    8
 73
    4
 74
    0
 42
1e-07
 43
1e-07
 40
0
 40
0
 40
0
 40
0
 40
1
 40
1
 40
1
 40
1
 10
148.3772156853703
 20
-192.944877108974
 30
0
 10
148.9408632197049
 20
-202.5004003057409
 30
0
 10
152.7016145788268
 20
-214.346710134954
 30
0
 10
154.4560616930855
 20
-233.2388047002898
 30
0
  0
SPLINE
  5
F8
100
AcDbEntity
  8
0
  6
ByLayer
 62
  256
370
   70
100
AcDbSpline
210
0
220
0
230
0
 70
    8
 71
    3
 72
    8
 73
    4
 74
    0
 42
1e-07
 43
1e-07
 40
0
 40
0
 40
0
 40
0
 40
1
 40
1
 40
1
 40
1
 10
146.6239403012854
 20
-146.6317623063848
 30
0
 10
145.3282475288873
 20
-168.5393529997838
 30
0
 10
148.2411485702034
 20
-190.640301231417
 30
0
 10
148.3772156853703
 20
-192.944877108974
 30
0
  0
SPLINE
  5
F9
100
AcDbEntity
  8
0
  6
ByLayer
 62
  256
370
   70
100
AcDbSpline
210
0
220
0
230
0
 70
    8
 71
    3
 72
    8
 73
    4
 74
    0
 42
1e-07
 43
1e-07
 40
0
 40
0
 40
0
 40
0
 40
1
 40
1
 40
1
 40
1
 10
181.7278151984065
 20
-81.17007247051305
 30
0
 10
146.9303799058468
 20
-80.31191840499395
 30
0
 10
149.0976379220543
 20
-113.6867800049537
 30
0
 10
146.6239403012854
 20
-146.6317623063848
 30
0
  0
SPLINE
  5
FA
100
AcDbEntity
  8
0
  6
ByLayer
 62
  256
370
   70
100
AcDbSpline
210
0
220
0
230
0
 70
    8
 71
    3
 72
    8
 73
    4
 74
    0
 42
1e-07
 43
1e-07
 40
0
 40
0
 40
0
 40
0
 40
1
 40
1
 40
1
 40
1
 10
238.646817870825
 20
-135.1527583834539
 30
0
 10
238.8597557600721
 20
-135.9962450958308
 30
0
 10
222.9752944687522
 20
-82.18730536026595
 30
0
 10
181.7278151984065
 20
-81.17007247051305
 30
0
  0
CIRCLE
  5
FB
100
AcDbEntity
  8
0
  6
ByLayer
 62
  256
370
   70
100
AcDbCircle
 10
211.4482897365963
 20
-153.1538693871627
 40
2.649999999999068
  0
CIRCLE
  5
FC
100
AcDbEntity
  8
0
  6
ByLayer
 62
  256
370
   70
100
AcDbCircle
 10
211.4482897365963
 20
-189.1538693871627
 40
2.649999999999949
  0
CIRCLE
  5
FD
100
AcDbEntity
  8
0
  6
ByLayer
 62
  256
370
   70
100
AcDbCircle
 10
169.4482897365962
 20
-189.1538693871627
 40
2.650000000000063
  0
CIRCLE
  5
FE
100
AcDbEntity
  8
0
  6
ByLayer
 62
  256
370
   70
100
AcDbCircle
 10
169.4482897365963
 20
-153.1538693871627
 40
2.649999999999551
  0
CIRCLE
  5
FF
100
AcDbEntity
  8
0
  6
ByLayer
 62
  256
370
   70
100
AcDbCircle
 10
169.4482897365962
 20
-298.1538693871627
 40
2.650000000000063
  0
CIRCLE
  5
100
100
AcDbEntity
  8
0
  6
ByLayer
 62
  256
370
   70
100
AcDbCircle
 10
211.4482897365963
 20
-298.1538693871627
 40
2.64999999999992
  0
CIRCLE
  5
101
100
AcDbEntity
  8
0
  6
ByLayer
 62
  256
370
   70
100
AcDbCircle
 10
211.4482897365962
 20
-334.1538693871628
 40
2.64999999999992
  0
CIRCLE
  5
102
100
AcDbEntity
  8
0
  6
ByLayer
 62
  256
370
   70
100
AcDbCircle
 10
169.4482897365962
 20
-334.1538693871628
 40
2.650000000000063
  0
LINE
  5
103
100
AcDbEntity
  8
0
  6
ByLayer
 62
  256
370
   70
100
AcDbLine
 10
160.4330781411011
 20
-106.1865727508662
 11
220.4330781411011
 21
-106.1865727508662
  0
LINE
  5
104
100
AcDbEntity
  8
0
  6
ByLayer
 62
  256
370
   70
100
AcDbLine
 10
220.4330781411011
 20
-106.1865727508662
 11
220.4330781411011
 21
-196.1865727508662
  0
LINE
  5
105
100
AcDbEntity
  8
0
  6
ByLayer
 62
  256
370
   70
100
AcDbLine
 10
220.4330781411011
 20
-196.1865727508662
 11
160.4330781411011
 21
-196.1865727508662
  0
LINE
  5
106
100
AcDbEntity
  8
0
  6
ByLayer
 62
  256
370
   70
100
AcDbLine
 10
160.4330781411011
 20
-196.1865727508662
 11
160.4330781411011
 21
-106.1865727508662
  0
CIRCLE
  5
107
100
AcDbEntity
  8
0
  6
ByLayer
 62
  256
370
   70
100
AcDbCircle
 10
190.4330781411011
 20
-171.1865727508662
 40
22.6
  0
LINE
  5
108
100
AcDbEntity
  8
0
  6
ByLayer
 62
  256
370
   70
100
AcDbLine
 10
220.4330781411011
 20
-171.1865727508662
 11
160.4330781411011
 21
-171.1865727508662
  0
LINE
  5
109
100
AcDbEntity
  8
0
  6
ByLayer
 62
  256
370
   70
100
AcDbLine
 10
190.4330781411011
 20
-196.1865727508661
 11
190.4330781411011
 21
-106.1865727508662
  0
CIRCLE
  5
10A
100
AcDbEntity
  8
0
  6
ByLayer
 62
  256
370
   70
100
AcDbCircle
 10
169.4330781411011
 20
-189.1865727508662
 40
1.5
  0
CIRCLE
  5
10B
100
AcDbEntity
  8
0
  6
ByLayer
 62
  256
370
   70
100
AcDbCircle
 10
211.4330781411011
 20
-189.1865727508662
 40
1.5
  0
CIRCLE
  5
10C
100
AcDbEntity
  8
0
  6
ByLayer
 62
  256
370
   70
100
AcDbCircle
 10
169.4330781411011
 20
-153.1865727508662
 40
1.5
  0
CIRCLE
  5
10D
100
AcDbEntity
  8
0
  6
ByLayer
 62
  256
370
   70
100
AcDbCircle
 10
211.4330781411011
 20
-153.1865727508662
 40
1.5
  0
CIRCLE
  5
10E
100
AcDbEntity
  8
0
  6
ByLayer
 62
  256
370
   70
100
AcDbCircle
 10
169.434398739483
 20
-153.1857448695954
 40
2.650000000000055
  0
CIRCLE
  5
10F
100
AcDbEntity
  8
0
  6
ByLayer
 62
  256
370
   70
100
AcDbCircle
 10
211.434398739483
 20
-153.1857448695954
 40
2.650000000000077
  0
SPLINE
  5
110
100
AcDbEntity
  8
0
  6
ByLayer
 62
  256
370
   70
100
AcDbSpline
210
0
220
0
230
0
 70
    8
 71
    3
 72
   23
 73
   19
 74
    0
 42
1e-07
 43
1e-07
 40
0
 40
0
 40
0
 40
0
 40
0.0625
 40
0.125
 40
0.1875
 40
0.25
 40
0.3125
 40
0.375
 40
0.4375
 40
0.5
 40
0.5625
 40
0.625
 40
0.6875
 40
0.75
 40
0.8125
 40
0.875
 40
0.9375
 40
1
 40
1
 40
1
 40
1
 10
249.8485574220298
 20
-181.1907437382349
 30
0
 10
249.839205891602
 20
-178.3375882950378
 30
0
 10
249.2102312326475
 20
-160.494654609999
 30
0
 10
242.5919472536298
 20
-132.3004212375025
 30
0
 10
230.3003520262213
 20
-107.9640179805509
 30
0
 10
217.3711524853819
 20
-91.52488730336427
 30
0
 10
201.4763747831702
 20
-80.10689591902366
 30
0
 10
190.1703397488735
 20
-76.02222281387611
 30
0
 10
172.6778272472953
 20
-76.44763285078255
 30
0
 10
164.6667357389828
 20
-75.99441582301682
 30
0
 10
150.813500949759
 20
-86.19476029594517
 30
0
 10
144.9252086475589
 20
-97.86830164830479
 30
0
 10
143.1674617032401
 20
-110.4972433691534
 30
0
 10
141.8538058674828
 20
-114.3682544737914
 30
0
 10
140.4093815664734
 20
-135.7517061423953
 30
0
 10
140.3070401901043
 20
-157.7024036289582
 30
0
 10
141.169909961841
 20
-168.9809657289032
 30
0
 10
143.3237715889246
 20
-185.0287051702474
 30
0
 10
144.5392713751206
 20
-193.4224207666278
 30
0
  0
CIRCLE
  5
111
100
AcDbEntity
  8
0
  6
ByLayer
 62
  256
370
   70
100
AcDbCircle
 10
211.4343987394829
 20
-189.1857448695954
 40
2.650000000000034
  0
CIRCLE
  5
112
100
AcDbEntity
  8
0
  6
ByLayer
 62
  256
370
   70
100
AcDbCircle
 10
169.4343987394829
 20
-189.1857448695954
 40
2.650000000000055
  0
LINE
  5
113
100
AcDbEntity
  8
0
  6
ByLayer
 62
  256
370
   70
100
AcDbLine
 10
159.3844264728829
 20
-206.2726835447954
 11
224.8486917049829
 21
-206.2726835447954
  0
ARC
  5
114
100
AcDbEntity
  8
0
  6
ByLayer
 62
  256
370
   70
100
AcDbCircle
 10
224.8486917049829
 20
-181.2726835447954
 40
25.00000000000032
100
AcDbArc
 50
270
 51
0.1877925396999887
  0
ARC
  5
115
100
AcDbEntity
  8
0
  6
ByLayer
 62
  256
370
   70
100
AcDbCircle
 10
159.3844264728829
 20
-191.2726835447954
 40
14.99999999999994
100
AcDbArc
 50
188.2397638953
 51
270
  0
DIMENSION
  5
116
100
AcDbEntity
  8
0
  6
CONTINUOUS
 62
  256
370
   -1
100
AcDbDimension
  2
*D2
 10
190.4
 20
19.99999999999997
 30
0
 11
223.7
 21
21.87499999999997
 31
0
 70
   32
 71
    5
  3
Standard
 53
0
210
0
220
0
230
1
100
AcDbAlignedDimension
 13
257
 23
-232
 33
0
 14
190.4
 24
-251.3
 34
0
100
AcDbRotatedDimension
  0
DIMENSION
  5
117
100
AcDbEntity
  8
0
  6
CONTINUOUS
 62
  256
370
   -1
100
AcDbDimension
  2
*D3
 10
310
 20
-232
 30
0
 11
308.125
 21
-274
 31
0
 70
   32
 71
    5
  3
Standard
 53
0
210
0
220
0
230
1
100
AcDbAlignedDimension
 13
191
 23
-316
 33
0
 14
191
 24
-232
 34
0
 50
90
100
AcDbRotatedDimension
  0
DIMENSION
  5
118
100
AcDbEntity
  8
0
  6
CONTINUOUS
 62
  256
370
   -1
100
AcDbDimension
  2
*D4
 10
310
 20
-171
 30
0
 11
308.125
 21
-201.5
 31
0
 70
   32
 71
    5
  3
Standard
 53
0
210
0
220
0
230
1
100
AcDbAlignedDimension
 13
191
 23
-232
 33
0
 14
191
 24
-171
 34
0
 50
90
100
AcDbRotatedDimension
  0
CIRCLE
  5
119
100
AcDbEntity
  8
0
  6
ByLayer
 62
  256
370
   70
100
AcDbCircle
 10
-164.4486673753147
 20
-319.1550241353925
 40
1.699999999999996
  0
CIRCLE
  5
11A
100
AcDbEntity
  8
0
  6
ByLayer
 62
  256
370
   70
100
AcDbCircle
 10
-169.4486673753148
 20
-298.1550241353925
 40
2.64999999999997
  0
CIRCLE
  5
11B
100
AcDbEntity
  8
0
  6
ByLayer
 62
  256
370
   70
100
AcDbCircle
 10
-211.4486673753148
 20
-298.1550241353925
 40
2.649999999999963
  0
SPLINE
  5
11C
100
AcDbEntity
  8
0
  6
ByLayer
 62
  256
370
   70
100
AcDbSpline
210
0
220
0
230
0
 70
    8
 71
    3
 72
   20
 73
   16
 74
    0
 42
1e-07
 43
1e-07
 40
0
 40
0
 40
0
 40
0
 40
0.07692307692307693
 40
0.1538461538461539
 40
0.2307692307692308
 40
0.3076923076923077
 40
0.3846153846153846
 40
0.4615384615384616
 40
0.5384615384615385
 40
0.6153846153846154
 40
0.6923076923076923
 40
0.7692307692307693
 40
0.8461538461538463
 40
0.9230769230769231
 40
1
 40
1
 40
1
 40
1
 10
-146.5712704798033
 20
-274.4318607228738
 30
0
 10
-146.4690670175024
 20
-276.0707868060688
 30
0
 10
-145.9152421989431
 20
-285.7508878138257
 30
0
 10
-145.830454819025
 20
-308.8191935699816
 30
0
 10
-147.8928288666222
 20
-333.970896298308
 30
0
 10
-164.9706469501079
 20
-354.4407715526261
 30
0
 10
-177.5771793721048
 20
-359.7806466389328
 30
0
 10
-193.2248386702169
 20
-361.8635330215182
 30
0
 10
-208.0791755028874
 20
-358.4585733404917
 30
0
 10
-214.3537312465655
 20
-353.676204332734
 30
0
 10
-221.9453942644536
 20
-346.4386111693612
 30
0
 10
-229.3347661758853
 20
-333.5371012903093
 30
0
 10
-233.6965547155266
 20
-313.5724784299767
 30
0
 10
-236.3678385952473
 20
-293.0769823740082
 30
0
 10
-237.1296107639723
 20
-282.7514726199118
 30
0
 10
-237.4557384416439
 20
-278.7150444598479
 30
0
  0
CIRCLE
  5
11D
100
AcDbEntity
  8
0
  6
ByLayer
 62
  256
370
   70
100
AcDbCircle
 10
-169.4486673753147
 20
-334.1550241353926
 40
2.649999999999999
  0
CIRCLE
  5
11E
100
AcDbEntity
  8
0
  6
ByLayer
 62
  256
370
   70
100
AcDbCircle
 10
-211.4486673753147
 20
-334.1550241353926
 40
2.64999999999992
  0
CIRCLE
  5
11F
100
AcDbEntity
  8
0
  6
ByLayer
 62
  256
370
   70
100
AcDbCircle
 10
-216.4486673753148
 20
-319.1550241353925
 40
1.699999999999989
  0
LINE
  5
120
100
AcDbEntity
  8
0
  6
ByLayer
 62
  256
370
   70
100
AcDbLine
 10
-207.5531817782148
 20
-246.2990343205926
 11
-176.5131084787146
 21
-246.2990343205926
  0
ARC
  5
121
100
AcDbEntity
  8
0
  6
ByLayer
 62
  256
370
   70
100
AcDbCircle
 10
-176.5131084787146
 20
-276.2990343205926
 40
29.99999999999996
100
AcDbArc
 50
3.568345213800018
 51
90
  0
ARC
  5
122
100
AcDbEntity
  8
0
  6
ByLayer
 62
  256
370
   70
100
AcDbCircle
 10
-207.5531817782148
 20
-276.2990343205926
 40
29.99999999999999
100
AcDbArc
 50
90
 51
184.6192418289
  0
INSERT
  5
123
100
AcDbEntity
  8
0
  6
ByLayer
 62
  256
370
   70
100
AcDbBlockReference
  2
XShoe_bottomPlateSketch_back
 10
-169.4482
 20
-334.1538000000001
 30
0
 41
-1
 42
1
 43
0
 50
0
 70
    1
 71
    1
 44
0
 45
0
  0
SPLINE
  5
124
100
AcDbEntity
  8
0
  6
ByLayer
 62
  256
370
   70
100
AcDbSpline
210
0
220
0
230
0
 70
    8
 71
    3
 72
    8
 73
    4
 74
    0
 42
1e-07
 43
1e-07
 40
0
 40
0
 40
0
 40
0
 40
1
 40
1
 40
1
 40
1
 10
-245.7276956150999
 20
-184.8211726315702
 30
0
 10
-246.9358948819753
 20
-161.4337432470249
 30
0
 10
-241.2216899273039
 20
-145.350090329567
 30
0
 10
-238.646817870825
 20
-135.1527583834539
 30
0
  0
SPLINE
  5
125
100
AcDbEntity
  8
0
  6
ByLayer
 62
  256
370
   70
100
AcDbSpline
210
0
220
0
230
0
 70
    8
 71
    3
 72
    8
 73
    4
 74
    0
 42
1e-07
 43
1e-07
 40
0
 40
0
 40
0
 40
0
 40
1
 40
1
 40
1
 40
1
 10
-237.1229466184474
 20
-241.805913763336
 30
0
 10
-241.5589159886156
 20
-210.9731921911477
 30
0
 10
-245.2198592265154
 20
-194.652883410067
 30
0
 10
-245.7276956150999
 20
-184.8211726315702
 30
0
  0
SPLINE
  5
126
100
AcDbEntity
  8
0
  6
ByLayer
 62
  256
370
   70
100
AcDbSpline
210
0
220
0
230
0
 70
    8
 71
    3
 72
    8
 73
    4
 74
    0
 42
1e-07
 43
1e-07
 40
0
 40
0
 40
0
 40
0
 40
1
 40
1
 40
1
 40
1
 10
-230.1701005045343
 20
-301.6190854060108
 30
0
 10
-231.4823958997845
 20
-293.4567557884359
 30
0
 10
-235.8379069410739
 20
-250.736773303481
 30
0
 10
-237.1229466184474
 20
-241.805913763336
 30
0
  0
SPLINE
  5
127
100
AcDbEntity
  8
0
  6
ByLayer
 62
  256
370
   70
100
AcDbSpline
210
0
220
0
230
0
 70
    8
 71
    3
 72
    8
 73
    4
 74
    0
 42
1e-07
 43
1e-07
 40
0
 40
0
 40
0
 40
0
 40
1
 40
1
 40
1
 40
1
 10
-226.3023799580295
 20
-320.2234385953701
 30
0
 10
-227.7320556644511
 20
-314.9661648892031
 30
0
 10
-229.0212958466194
 20
-308.7647138260829
 30
0
 10
-230.1701005045343
 20
-301.6190854060108
 30
0
  0
SPLINE
  5
128
100
AcDbEntity
  8
0
  6
ByLayer
 62
  256
370
   70
100
AcDbSpline
210
0
220
0
230
0
 70
    8
 71
    3
 72
    8
 73
    4
 74
    0
 42
1e-07
 43
1e-07
 40
0
 40
0
 40
0
 40
0
 40
1
 40
1
 40
1
 40
1
 10
-188.2499934405019
 20
-354.5695425922539
 30
0
 10
-210.2194234756328
 20
-355.112370024801
 30
0
 10
-222.9035523148087
 20
-343.663668692506
 30
0
 10
-226.3023799580295
 20
-320.2234385953701
 30
0
  0
SPLINE
  5
129
100
AcDbEntity
  8
0
  6
ByLayer
 62
  256
370
   70
100
AcDbSpline
210
0
220
0
230
0
 70
    8
 71
    3
 72
    8
 73
    4
 74
    0
 42
1e-07
 43
1e-07
 40
0
 40
0
 40
0
 40
0
 40
1
 40
1
 40
1
 40
1
 10
-154.7264380959581
 20
-317.0508657201979
 30
0
 10
-157.0517827848931
 20
-327.5652424944407
 30
0
 10
-158.7395160700189
 20
-351.519756288633
 30
0
 10
-188.2499934405021
 20
-354.5695425922548
 30
0
  0
SPLINE
  5
12A
100
AcDbEntity
  8
0
  6
ByLayer
 62
  256
370
   70
100
AcDbSpline
210
0
220
0
230
0
 70
    8
 71
    3
 72
    8
 73
    4
 74
    0
 42
1e-07
 43
1e-07
 40
0
 40
0
 40
0
 40
0
 40
1
 40
1
 40
1
 40
1
 10
-154.4560616930855
 20
-233.2388047002898
 30
0
 10
-155.9435127822204
 20
-245.075571212805
 30
0
 10
-151.8977348838902
 20
-304.2594858188128
 30
0
 10
-154.726438095958
 20
-317.050865720197
 30
0
  0
SPLINE
  5
12B
100
AcDbEntity
  8
0
  6
ByLayer
 62
  256
370
   70
100
AcDbSpline
210
0
220
0
230
0
 70
    8
 71
    3
 72
    8
 73
    4
 74
    0
 42
1e-07
 43
1e-07
 40
0
 40
0
 40
0
 40
0
 40
1
 40
1
 40
1
 40
1
 10
-148.3772156853703
 20
-192.944877108974
 30
0
 10
-148.9408632197049
 20
-202.5004003057409
 30
0
 10
-152.7016145788268
 20
-214.346710134954
 30
0
 10
-154.4560616930855
 20
-233.2388047002898
 30
0
  0
SPLINE
  5
12C
100
AcDbEntity
  8
0
  6
ByLayer
 62
  256
370
   70
100
AcDbSpline
210
0
220
0
230
0
 70
    8
 71
    3
 72
    8
 73
    4
 74
    0
 42
1e-07
 43
1e-07
 40
0
 40
0
 40
0
 40
0
 40
1
 40
1
 40
1
 40
1
 10
-146.6239403012854
 20
-146.6317623063848
 30
0
 10
-145.3282475288873
 20
-168.5393529997839
 30
0
 10
-148.2411485702034
 20
-190.640301231417
 30
0
 10
-148.3772156853703
 20
-192.944877108974
 30
0
  0
SPLINE
  5
12D
100
AcDbEntity
  8
0
  6
ByLayer
 62
  256
370
   70
100
AcDbSpline
210
0
220
0
230
0
 70
    8
 71
    3
 72
    8
 73
    4
 74
    0
 42
1e-07
 43
1e-07
 40
0
 40
0
 40
0
 40
0
 40
1
 40
1
 40
1
 40
1
 10
-181.7278151984065
 20
-81.17007247051293
 30
0
 10
-146.9303799058468
 20
-80.31191840499395
 30
0
 10
-149.0976379220543
 20
-113.6867800049538
 30
0
 10
-146.6239403012854
 20
-146.6317623063848
 30
0
  0
SPLINE
  5
12E
100
AcDbEntity
  8
0
  6
ByLayer
 62
  256
370
   70
100
AcDbSpline
210
0
220
0
230
0
 70
    8
 71
    3
 72
    8
 73
    4
 74
    0
 42
1e-07
 43
1e-07
 40
0
 40
0
 40
0
 40
0
 40
1
 40
1
 40
1
 40
1
 10
-238.646817870825
 20
-135.1527583834539
 30
0
 10
-238.8597557600721
 20
-135.9962450958308
 30
0
 10
-222.9752944687522
 20
-82.18730536026595
 30
0
 10
-181.7278151984065
 20
-81.17007247051293
 30
0
  0
CIRCLE
  5
12F
100
AcDbEntity
  8
0
  6
ByLayer
 62
  256
370
   70
100
AcDbCircle
 10
-211.4482897365963
 20
-153.1538693871627
 40
2.649999999999068
  0
CIRCLE
  5
130
100
AcDbEntity
  8
0
  6
ByLayer
 62
  256
370
   70
100
AcDbCircle
 10
-211.4482897365963
 20
-189.1538693871627
 40
2.649999999999949
  0
CIRCLE
  5
131
100
AcDbEntity
  8
0
  6
ByLayer
 62
  256
370
   70
100
AcDbCircle
 10
-169.4482897365962
 20
-189.1538693871627
 40
2.650000000000063
  0
CIRCLE
  5
132
100
AcDbEntity
  8
0
  6
ByLayer
 62
  256
370
   70
100
AcDbCircle
 10
-169.4482897365963
 20
-153.1538693871627
 40
2.649999999999551
  0
CIRCLE
  5
133
100
AcDbEntity
  8
0
  6
ByLayer
 62
  256
370
   70
100
AcDbCircle
 10
-169.4482897365962
 20
-298.1538693871627
 40
2.650000000000063
  0
CIRCLE
  5
134
100
AcDbEntity
  8
0
  6
ByLayer
 62
  256
370
   70
100
AcDbCircle
 10
-211.4482897365963
 20
-298.1538693871627
 40
2.64999999999992
  0
CIRCLE
  5
135
100
AcDbEntity
  8
0
  6
ByLayer
 62
  256
370
   70
100
AcDbCircle
 10
-211.4482897365962
 20
-334.1538693871628
 40
2.64999999999992
  0
CIRCLE
  5
136
100
AcDbEntity
  8
0
  6
ByLayer
 62
  256
370
   70
100
AcDbCircle
 10
-169.4482897365962
 20
-334.1538693871628
 40
2.650000000000063
  0
LINE
  5
137
100
AcDbEntity
  8
0
  6
ByLayer
 62
  256
370
   70
100
AcDbLine
 10
-160.4330781411011
 20
-106.1865727508662
 11
-220.4330781411011
 21
-106.1865727508662
  0
LINE
  5
138
100
AcDbEntity
  8
0
  6
ByLayer
 62
  256
370
   70
100
AcDbLine
 10
-220.4330781411011
 20
-106.1865727508662
 11
-220.4330781411011
 21
-196.1865727508662
  0
LINE
  5
139
100
AcDbEntity
  8
0
  6
ByLayer
 62
  256
370
   70
100
AcDbLine
 10
-220.4330781411011
 20
-196.1865727508662
 11
-160.4330781411011
 21
-196.1865727508662
  0
LINE
  5
13A
100
AcDbEntity
  8
0
  6
ByLayer
 62
  256
370
   70
100
AcDbLine
 10
-160.4330781411011
 20
-196.1865727508662
 11
-160.4330781411011
 21
-106.1865727508662
  0
CIRCLE
  5
13B
100
AcDbEntity
  8
0
  6
ByLayer
 62
  256
370
   70
100
AcDbCircle
 10
-190.4330781411011
 20
-171.1865727508662
 40
22.6
  0
LINE
  5
13C
100
AcDbEntity
  8
0
  6
ByLayer
 62
  256
370
   70
100
AcDbLine
 10
-220.4330781411011
 20
-171.1865727508662
 11
-160.4330781411011
 21
-171.1865727508662
  0
LINE
  5
13D
100
AcDbEntity
  8
0
  6
ByLayer
 62
  256
370
   70
100
AcDbLine
 10
-190.4330781411011
 20
-196.1865727508661
 11
-190.4330781411011
 21
-106.1865727508662
  0
CIRCLE
  5
13E
100
AcDbEntity
  8
0
  6
ByLayer
 62
  256
370
   70
100
AcDbCircle
 10
-169.4330781411011
 20
-189.1865727508662
 40
1.5
  0
CIRCLE
  5
13F
100
AcDbEntity
  8
0
  6
ByLayer
 62
  256
370
   70
100
AcDbCircle
 10
-211.4330781411011
 20
-189.1865727508662
 40
1.5
  0
CIRCLE
  5
140
100
AcDbEntity
  8
0
  6
ByLayer
 62
  256
370
   70
100
AcDbCircle
 10
-169.4330781411011
 20
-153.1865727508662
 40
1.5
  0
CIRCLE
  5
141
100
AcDbEntity
  8
0
  6
ByLayer
 62
  256
370
   70
100
AcDbCircle
 10
-211.4330781411011
 20
-153.1865727508662
 40
1.5
  0
CIRCLE
  5
142
100
AcDbEntity
  8
0
  6
ByLayer
 62
  256
370
   70
100
AcDbCircle
 10
-169.434398739483
 20
-153.1857448695954
 40
2.650000000000055
  0
CIRCLE
  5
143
100
AcDbEntity
  8
0
  6
ByLayer
 62
  256
370
   70
100
AcDbCircle
 10
-211.434398739483
 20
-153.1857448695954
 40
2.650000000000077
  0
SPLINE
  5
144
100
AcDbEntity
  8
0
  6
ByLayer
 62
  256
370
   70
100
AcDbSpline
210
0
220
0
230
0
 70
    8
 71
    3
 72
   23
 73
   19
 74
    0
 42
1e-07
 43
1e-07
 40
0
 40
0
 40
0
 40
0
 40
0.0625
 40
0.125
 40
0.1875
 40
0.25
 40
0.3125
 40
0.375
 40
0.4375
 40
0.5
 40
0.5625
 40
0.625
 40
0.6875
 40
0.75
 40
0.8125
 40
0.875
 40
0.9375
 40
1
 40
1
 40
1
 40
1
 10
-249.8485574220298
 20
-181.1907437382349
 30
0
 10
-249.839205891602
 20
-178.337588295038
 30
0
 10
-249.2102312326475
 20
-160.4946546099991
 30
0
 10
-242.5919472536298
 20
-132.3004212375024
 30
0
 10
-230.3003520262213
 20
-107.9640179805508
 30
0
 10
-217.3711524853819
 20
-91.52488730336415
 30
0
 10
-201.4763747831702
 20
-80.10689591902366
 30
0
 10
-190.1703397488735
 20
-76.02222281387623
 30
0
 10
-172.6778272472953
 20
-76.44763285078244
 30
0
 10
-164.6667357389828
 20
-75.99441582301682
 30
0
 10
-150.813500949759
 20
-86.19476029594517
 30
0
 10
-144.9252086475589
 20
-97.86830164830479
 30
0
 10
-143.1674617032401
 20
-110.4972433691534
 30
0
 10
-141.8538058674828
 20
-114.3682544737914
 30
0
 10
-140.4093815664734
 20
-135.7517061423953
 30
0
 10
-140.3070401901043
 20
-157.7024036289582
 30
0
 10
-141.169909961841
 20
-168.9809657289032
 30
0
 10
-143.3237715889246
 20
-185.0287051702474
 30
0
 10
-144.5392713751206
 20
-193.4224207666278
 30
0
  0
CIRCLE
  5
145
100
AcDbEntity
  8
0
  6
ByLayer
 62
  256
370
   70
100
AcDbCircle
 10
-211.4343987394829
 20
-189.1857448695954
 40
2.650000000000034
  0
CIRCLE
  5
146
100
AcDbEntity
  8
0
  6
ByLayer
 62
  256
370
   70
100
AcDbCircle
 10
-169.4343987394829
 20
-189.1857448695954
 40
2.650000000000055
  0
LINE
  5
147
100
AcDbEntity
  8
0
  6
ByLayer
 62
  256
370
   70
100
AcDbLine
 10
-159.3844264728829
 20
-206.2726835447953
 11
-224.8486917049829
 21
-206.2726835447953
  0
ARC
  5
148
100
AcDbEntity
  8
0
  6
ByLayer
 62
  256
370
   70
100
AcDbCircle
 10
-224.8486917049829
 20
-181.2726835447953
 40
25.00000000000032
100
AcDbArc
 50
179.8122074603
 51
270
  0
ARC
  5
149
100
AcDbEntity
  8
0
  6
ByLayer
 62
  256
370
   70
100
AcDbCircle
 10
-159.3844264728829
 20
-191.2726835447953
 40
14.99999999999994
100
AcDbArc
 50
270
 51
351.7602361047
  0
DIMENSION
  5
14A
100
AcDbEntity
  8
0
  6
CONTINUOUS
 62
  256
370
   -1
100
AcDbDimension
  2
*D5
 10
-190.4
 20
20.00000000000003
 30
0
 11
-223.7
 21
21.87500000000003
 31
0
 70
   32
 71
    5
  3
Standard
 53
0
210
0
220
0
230
1
100
AcDbAlignedDimension
 13
-257
 23
-232
 33
0
 14
-190.4
 24
-251.3
 34
0
 50
180
100
AcDbRotatedDimension
  0
DIMENSION
  5
14B
100
AcDbEntity
  8
0
  6
CONTINUOUS
 62
  256
370
   -1
100
AcDbDimension
  2
*D6
 10
-310
 20
-232
 30
0
 11
-311.875
 21
-274
 31
0
 70
   32
 71
    5
  3
Standard
 53
0
210
0
220
0
230
1
100
AcDbAlignedDimension
 13
-191
 23
-316
 33
0
 14
-191
 24
-232
 34
0
 50
90.00000000000001
100
AcDbRotatedDimension
  0
DIMENSION
  5
14C
100
AcDbEntity
  8
0
  6
CONTINUOUS
 62
  256
370
   -1
100
AcDbDimension
  2
*D7
 10
-310
 20
-171
 30
0
 11
-311.875
 21
-201.5
 31
0
 70
   32
 71
    5
  3
Standard
 53
0
210
0
220
0
230
1
100
AcDbAlignedDimension
 13
-191
 23
-232
 33
0
 14
-191
 24
-171
 34
0
 50
90.00000000000001
100
AcDbRotatedDimension
  0
LINE
  5
14D
100
AcDbEntity
  8
0
  6
ByLayer
 62
  256
370
   -1
100
AcDbLine
 10
-1000
 20
-232
 11
1000
 21
-232
  0
INSERT
  5
14E
100
AcDbEntity
  8
background
  6
ByLayer
 62
  256
370
   -1
100
AcDbBlockReference
  2
icub_sole2
 10
75
 20
-232
 30
0
 41
-1
 42
1
 43
0
 50
179.991
 70
    1
 71
    1
 44
0
 45
0
  0
DIMENSION
  5
14F
100
AcDbEntity
  8
background
  6
ByLayer
 62
  256
370
   -1
100
AcDbDimension
  2
*D8
 10
-3.000000000000004
 20
-300
 30
0
 11
-39
 21
-298.125
 31
0
 70
   32
 71
    5
  3
Standard
 53
0
210
0
220
0
230
1
100
AcDbAlignedDimension
 13
-75
 23
-232
 33
0
 14
-3
 24
-232
 34
0
100
AcDbRotatedDimension
  0
DIMENSION
  5
150
100
AcDbEntity
  8
background
  6
ByLayer
 62
  256
370
   -1
100
AcDbDimension
  2
*D9
 10
75
 20
-300
 30
0
 11
39
 21
-298.125
 31
0
 70
   32
 71
    5
  3
Standard
 53
0
210
0
220
0
230
1
100
AcDbAlignedDimension
 13
3
 23
-300
 33
0
 14
75
 24
-300
 34
0
100
AcDbRotatedDimension
  0
INSERT
  5
151
100
AcDbEntity
  8
background
  6
CONTINUOUS
 62
  256
370
   30
100
AcDbBlockReference
  2
icub_sole2
 10
-75
 20
-232
 30
0
 41
1
 42
1
 43
0
 50
180.009
 70
    1
 71
    1
 44
0
 45
0
  0
DIMENSION
  5
152
100
AcDbEntity
  8
background
  6
ByLayer
 62
  256
370
   -1
100
AcDbDimension
  2
*D10
 10
-257
 20
-380
 30
0
 11
-166
 21
-378.125
 31
0
 70
   32
 71
    5
  3
Standard
 53
0
210
0
220
0
230
1
100
AcDbAlignedDimension
 13
-75
 23
-232
 33
0
 14
-257
 24
-232
 34
0
100
AcDbRotatedDimension
  0
DIMENSION
  5
153
100
AcDbEntity
  8
background
  6
ByLayer
 62
  256
370
   -1
100
AcDbDimension
  2
*D11
 10
257
 20
-380
 30
0
 11
166
 21
-378.125
 31
0
 70
   32
 71
    5
  3
Standard
 53
0
210
0
220
0
230
1
100
AcDbAlignedDimension
 13
75
 23
-232
 33
0
 14
257
 24
-232
 34
0
100
AcDbRotatedDimension
  0
ENDSEC
  0
SECTION
  2
OBJECTS
  0
DICTIONARY
  5
C
330
0
100
AcDbDictionary
281
    1
  3
ACAD_GROUP
350
D
  3
ACAD_IMAGE_DICT
350
154
  0
DICTIONARY
  5
D
330
C
100
AcDbDictionary
281
    1
  0
IMAGEDEF_REACTOR
  5
CC
330
CD
100
AcDbRasterImageDefReactor
 90
    2
330
CD
  0
IMAGEDEF_REACTOR
  5
CE
330
CF
100
AcDbRasterImageDefReactor
 90
    2
330
CF
  0
DICTIONARY
  5
154
330
C
100
AcDbDictionary
281
    1
  3
iit-logo
350
CB
  0
IMAGEDEF
  5
CB
102
{ACAD_REACTORS
330
CC
330
CE
102
}
100
AcDbRasterImageDef
 90
    0
  1
/home/ltagliapietra/Desktop/iit-logo.png
 10
1000
 20
1117
 11
1
 21
1
280
    1
281
    0
  0
ENDSEC
  0
EOF
